<svg xmlns="http://www.w3.org/2000/svg" xmlns:xlink="http://www.w3.org/1999/xlink">
	<symbol id="logo-color" width="514.76" height="116.09" viewBox="0 0 514.76 116.09">
		<path d="M1.51 89.93h7.35c6.1 0 8.47 1.44 8.5 5.39.02 2.33-1.03 3.79-2.98 4.23 2.25.54 3.59 2.08 3.6 4.79.04 4.03-2.21 5.55-8.65 5.55H1.7l-.18-19.97Zm7.25 8.16c2.26 0 2.97-.58 2.95-2.47-.02-1.87-.73-2.5-2.81-2.5H6.98l.05 4.97h1.73Zm.3 8.61c2.44 0 3.21-.71 3.21-2.83-.02-2.07-.91-2.85-3.5-2.85H7.06l.06 5.68h1.94Zm11.02-16.77h4.69l.02 3.73H20.1l-.02-3.73Zm.03 5.69h4.69l.16 14.27h-4.69l-.16-14.27Zm7.55 15.84h4.44c-.4 1.72.62 2.26 2.34 2.26s2.83-.61 2.79-3.54l-.03-1.68c-.96 1.14-2.33 1.63-4.21 1.63-3.62 0-5.71-2.25-5.8-7.39-.08-5.06 1.58-7.34 5.61-7.34 1.98 0 3.92.69 4.96 2.15l.6-1.93h3.1l.15 14.39c.05 4.52-2.64 6.09-7.27 6.09-5.08 0-7.47-1.03-6.68-4.63Zm9.41-8.72c-.03-3.19-.83-4.48-2.54-4.48s-2.52 1.29-2.49 4.48c.03 3.23.85 4.51 2.58 4.51s2.49-1.27 2.45-4.51Zm7.04-3.11h8.8l.04 3.57h-8.8l-.04-3.57Zm11.03.3c-.16-7.04 2.54-10.28 8.78-10.28s9.27 2.86 8.11 8.25h-4.9c.56-3.47-.43-4.82-2.67-4.82-2.62 0-3.71 1.75-3.66 6.85.05 5.1 1.18 6.79 3.79 6.79 2.2 0 3.13-1.4 2.5-5.11h5.11c1.28 5.58-1.14 8.56-7.28 8.56s-9.61-3.17-9.78-10.24Zm19.62-9.99 4.66-.5.07 7.88c.99-1.27 2.68-1.95 4.32-1.95 3.34 0 4.42 1.71 4.47 6.33l.08 8.19h-4.69l-.1-8.44c-.02-2.32-.45-3.05-1.73-3.05-1.49 0-2.32 1.19-2.29 3.38l.09 8.11h-4.68l-.2-19.95Zm15.59 12.78c-.03-5.07 1.68-7.37 5.72-7.37 1.97 0 3.78.7 4.86 2.14l.62-1.92h3.1l.14 14.32h-3.1l-.65-1.91c-.94 1.46-2.45 2.13-4.42 2.13-4.03 0-6.22-2.34-6.27-7.39Zm9.88 0c-.03-3.17-.83-4.48-2.54-4.48s-2.52 1.31-2.49 4.48c.04 3.18.85 4.5 2.57 4.5s2.5-1.31 2.45-4.5Zm7.23-12.79h4.69l.02 3.73h-4.69l-.02-3.73Zm.03 5.69h4.69l.16 14.27h-4.69l-.16-14.27Zm7.55 0h3.08l.67 2.06c.97-1.38 2.65-2.31 4.92-2.31 3.47 0 4.76 1.68 4.81 6.33l.08 8.19h-4.69l-.09-8.34c-.02-2.4-.45-3.15-1.76-3.15-1.45 0-2.29 1.26-2.26 3.49l.09 8h-4.68l-.16-14.27Zm34.31 11.23h-6.6l-.84 3.03h-5.37l7.4-19.96h4.76l7.42 19.96h-5.82l-.95-3.03Zm-.96-3.02-2.56-8.17-2.25 8.17h4.82Zm8.6-8.21h3.1l.66 1.92c.99-1.45 2.6-2.14 4.52-2.14 4.02 0 6.06 2.28 6.16 7.37.09 5.09-1.64 7.39-5.26 7.39-1.65 0-3.37-.46-4.37-1.62l.06 6.61-4.68.61-.2-20.14Zm9.58 7.14c-.03-3.21-.85-4.51-2.58-4.51s-2.49 1.3-2.45 4.51c.02 3.24.82 4.49 2.54 4.49s2.51-1.26 2.49-4.49Zm7.11-7.14h3.1l.66 1.92c.99-1.45 2.6-2.14 4.52-2.14 4.02 0 6.06 2.28 6.16 7.37.09 5.09-1.64 7.39-5.25 7.39-1.65 0-3.37-.46-4.37-1.62l.06 6.61-4.68.61-.2-20.14Zm9.59 7.14c-.03-3.21-.85-4.51-2.58-4.51s-2.49 1.3-2.45 4.51c.02 3.24.82 4.49 2.54 4.49s2.51-1.26 2.49-4.49Zm6.61 2.65H194c-.3 1.64.48 2.46 2.03 2.46 1.42 0 2.05-.53 2.03-1.49-.08-2.78-7.82-2.28-8.19-7.04-.21-2.59 1.88-4.01 5.88-4.01 4.76 0 6.95 1.35 6.42 4.26h-3.97c.29-1.3-.3-1.98-1.67-1.98-1.21 0-1.8.46-1.77 1.28.1 2.62 7.67 2.12 8.01 6.9.14 2.88-2.04 4.37-6.3 4.36-4.95 0-7.12-1.5-6.58-4.74Zm23.08-7.05h-2.39l-.03-2.74h2.39v-.83c-.03-3.88 1.92-5.25 5.9-5.25 4.74 0 6.78 1.05 5.75 4.89h-3.81c.42-1.72-.22-2.38-1.44-2.38-1.08 0-1.74.57-1.72 2.61v.97h3.54l.03 2.74h-3.53l.17 16.78-4.68.61-.17-17.4Z" fill="#3bb552"/>
		<path d="M222.14 102.81c-.04-4.74 1.95-7.46 7.03-7.46s7.56 2.71 7.61 7.46c.04 4.76-1.93 7.34-7.05 7.34s-7.56-2.59-7.59-7.34Zm9.83 0c-.05-3.43-.9-4.65-2.55-4.65s-2.48 1.22-2.43 4.65c.02 3.36.9 4.58 2.51 4.58s2.48-1.24 2.47-4.58Zm7.07-7.19h3.09l.6 2.04c.95-1.46 2.36-2.26 3.98-2.26 3.45 0 4.85 2.24 3.91 6.88h-3.75c.48-2.69 0-3.94-1.13-3.94-1.22 0-1.96 1.18-1.95 3.4l.1 8.16h-4.69l-.16-14.27Zm21.18-5.69h5.49l.05 7.99h5.35l-.05-7.99h5.49l.18 19.97h-5.49l-.07-8.39h-5.35l.07 8.39h-5.49l-.18-19.97Zm19.06 12.88c-.04-4.74 1.95-7.46 7.03-7.46s7.56 2.71 7.61 7.46c.04 4.76-1.93 7.34-7.05 7.34s-7.56-2.59-7.59-7.34Zm9.83 0c-.05-3.43-.9-4.65-2.55-4.65s-2.48 1.22-2.43 4.65c.02 3.36.9 4.58 2.51 4.58s2.48-1.24 2.47-4.58Zm7.07-7.19h3.1l.59 1.99c.94-1.36 2.53-2.22 4.33-2.22s3.15.7 3.82 2.27c.94-1.4 2.5-2.27 4.27-2.27 3.28 0 4.63 1.7 4.67 5.9l.09 8.6h-4.69l-.09-8.54c-.03-2.2-.48-2.97-1.46-2.97-1.25 0-1.89 1.06-1.86 3.29l.1 8.22h-4.69l-.09-8.54c-.02-2.22-.51-2.97-1.45-2.97-1.22 0-1.92 1.04-1.89 3.29l.1 8.22h-4.69l-.16-14.27Zm22.87 7.04c-.04-4.96 2-7.32 6.83-7.32s7.61 2.04 6.82 8.41h-8.82c0 2.8.78 3.97 2.57 3.97 1.48 0 2.19-.78 1.95-2.28h4.29c.56 3.3-1.49 4.74-6.12 4.74-4.96 0-7.49-2.46-7.52-7.53Zm9.25-1.09c.14-2.6-.51-3.69-2.06-3.69s-2.32 1.04-2.36 3.69h4.42Zm7.78 3.49-.07-6.69h-2.38l-.03-2.75h.93c2.63 0 2.75-.08 2.71-2.73v-1.57l3.4-.34.03 4.64h5.2l.03 2.75h-5.2l.07 6.64c.02 1.84.55 2.4 1.35 2.4 1.1 0 1.62-1.37.98-4.33h3.42c1.1 5.13-.53 7-4.56 7-3.77 0-5.83-1.4-5.87-5.02Zm11.86-2.25c-.04-4.74 1.95-7.46 7.03-7.46s7.56 2.71 7.61 7.46c.04 4.76-1.93 7.34-7.05 7.34s-7.56-2.59-7.59-7.34Zm9.83 0c-.05-3.43-.9-4.65-2.55-4.65s-2.48 1.22-2.43 4.65c.02 3.36.9 4.58 2.51 4.58s2.48-1.24 2.47-4.58Zm5.69-7.19h4.81l2.35 8.51 2.3-8.51h3.31l2.31 8.51 1.93-8.51h4.07l-4.67 14.27h-3.33l-2.35-8.42-2.32 8.42h-3.5l-4.89-14.27Zm22.56 0h3.08l.67 2.06c.98-1.38 2.65-2.31 4.92-2.31 3.47 0 4.76 1.68 4.81 6.33l.08 8.19h-4.69l-.1-8.34c-.02-2.4-.45-3.15-1.76-3.15-1.45 0-2.29 1.26-2.26 3.49l.09 8h-4.68l-.16-14.27Zm22.71 7.9h5.22c-.5 2.37.41 3.49 2.4 3.49 1.74 0 2.78-.66 2.72-2.18-.15-3.77-9.74-3.01-10.44-9.6-.38-3.61 2.33-5.55 7.04-5.55 5.82 0 8.82 1.98 7.83 5.97h-4.87c.39-1.99-.48-2.9-2.29-2.9-1.45 0-2.34.63-2.29 1.87.14 3.78 10.09 3.07 10.52 9.55.28 4.13-2.37 5.99-7.74 5.99-6.31 0-9.23-2.05-8.09-6.64Zm17.73-13.58 4.66-.5.07 7.88c.99-1.27 2.68-1.95 4.32-1.95 3.34 0 4.42 1.71 4.47 6.33l.09 8.19h-4.69l-.1-8.44c-.02-2.32-.45-3.05-1.73-3.05-1.49 0-2.32 1.19-2.3 3.38l.09 8.11h-4.68l-.2-19.95Zm15.6 12.87c-.04-4.74 1.95-7.46 7.03-7.46s7.56 2.71 7.61 7.46c.04 4.76-1.93 7.34-7.05 7.34s-7.56-2.59-7.59-7.34Zm9.82 0c-.05-3.43-.9-4.65-2.55-4.65s-2.48 1.22-2.43 4.65c.02 3.36.9 4.58 2.51 4.58s2.48-1.24 2.47-4.58Zm7.07-7.19h3.1l.66 1.92c.99-1.45 2.6-2.14 4.52-2.14 4.02 0 6.06 2.28 6.16 7.37.09 5.09-1.64 7.39-5.25 7.39-1.65 0-3.37-.46-4.37-1.62l.06 6.61-4.68.61-.2-20.14Zm9.59 7.14c-.03-3.21-.85-4.51-2.58-4.51s-2.49 1.3-2.45 4.51c.02 3.24.82 4.49 2.54 4.49s2.51-1.26 2.49-4.49Zm6.61 2.65h4.12c-.3 1.64.48 2.46 2.03 2.46 1.42 0 2.05-.53 2.03-1.49-.08-2.78-7.82-2.28-8.19-7.04-.21-2.59 1.88-4.01 5.88-4.01 4.76 0 6.95 1.35 6.42 4.26h-3.97c.29-1.3-.3-1.98-1.67-1.98-1.21 0-1.8.46-1.77 1.28.1 2.62 7.67 2.12 8.01 6.9.14 2.88-2.04 4.37-6.3 4.36-4.95 0-7.12-1.5-6.58-4.74ZM490 89.93h5.53l-.93 13.45h-3.45L490 89.93Zm.56 15.54h4.69l.05 4.42h-4.69l-.05-4.42Z" fill="#3bb552"/>
		<path d="M23.13.83h24.95C72.6.83 80.06 8.4 74.44 26.48c-5.52 17.79-15.22 26.07-38.28 26.07h-8.67l-7.05 22.62H0L23.13.83ZM37.8 39.91c7.44 0 11.99-3.14 15.21-13.43 3.18-10.17.84-12.98-7.15-12.98h-6.25l-8.24 26.41h6.42ZM89.3.83h20.44l-23.09 74.3H66.21L89.3.83Zm9.22 64.88 45.11-51.72h-28.51L119.24.82h53.92l-2.96 9.38-45.41 51.68h29.48l-4.05 13.21H95.66l2.85-9.38Zm59.81 0 45.11-51.72h-28.51L179.05.82h53.92l-2.96 9.38-45.41 51.68h29.48l-4.05 13.21h-54.56l2.85-9.38Zm155.61-26.87C322.41 11.44 335.59.68 358.26.68s32.29 10.61 23.7 38.16c-8.51 27.47-21.53 38.08-44.31 38.08s-32.2-10.68-23.71-38.08Zm46.6-.04c6.02-19.46 4.09-25.41-4.7-25.41s-14.48 5.96-20.54 25.41c-6.06 19.42-4 25.26 4.83 25.26s14.39-5.88 20.41-25.26Zm31.93-37.11h21.27l-5.16 49.12 26.15-49.12h18.15l-5.16 49.16L472.6 1.69h17.88l-43.54 74.26h-18.65l4.37-47.57-25.36 47.57h-18.15l3.33-74.26Zm85.26 57.82h17.46l-5.06 16.44h-17.46l5.06-16.44Zm16.44-57.82h20.59l-19.48 50.05h-12.86l11.75-50.05Z" fill="#e42936"/>
		<path d="m224.59 29.49 55.76 25.05-76.76.81 21-25.86z" fill="#e42936"/>
		<path d="m266.19 48.18 1.23 6.5 12.93-.14-14.16-6.36zm-37.34 6.9 19.3-.2 5.12-12.5-15.37-6.91-9.05 19.61zm-1.17 2.54-7.53 16.31h20.2l6.76-16.52-19.43.21z" fill="#e42936"/>
		<path d="m301.35 0-17.78 46.46L276.71.4h-22.62l-15.13 32.78 15.27 6.86 7.13-17.42 4.26 22.53 15.76 7.08c1.08.49 1.68 1.66 1.44 2.82a2.532 2.532 0 0 1-2.44 2.01l-12.48.13 3.16 16.74h21.82L321.55 0h-20.2Z" fill="#e42936"/>
	</symbol>

	<symbol id="logo" width="514.76" height="116.09" viewBox="0 0 514.76 116.09">
		<path d="M1.51 89.93h7.35c6.1 0 8.47 1.44 8.5 5.39.02 2.33-1.03 3.79-2.98 4.23 2.25.54 3.59 2.08 3.6 4.79.04 4.03-2.21 5.55-8.65 5.55H1.7l-.18-19.97Zm7.25 8.16c2.26 0 2.97-.58 2.95-2.47-.02-1.87-.73-2.5-2.81-2.5H6.98l.05 4.97h1.73Zm.3 8.61c2.44 0 3.21-.71 3.21-2.83-.02-2.07-.91-2.85-3.5-2.85H7.06l.06 5.68h1.94Zm11.02-16.77h4.69l.02 3.73H20.1l-.02-3.73Zm.03 5.69h4.69l.16 14.27h-4.69l-.16-14.27Zm7.55 15.84h4.44c-.4 1.72.62 2.26 2.34 2.26s2.83-.61 2.79-3.54l-.03-1.68c-.96 1.14-2.33 1.63-4.21 1.63-3.62 0-5.71-2.25-5.8-7.39-.08-5.06 1.58-7.34 5.61-7.34 1.98 0 3.92.69 4.96 2.15l.6-1.93h3.1l.15 14.39c.05 4.52-2.64 6.09-7.27 6.09-5.08 0-7.47-1.03-6.68-4.63Zm9.41-8.72c-.03-3.19-.83-4.48-2.54-4.48s-2.52 1.29-2.49 4.48c.03 3.23.85 4.51 2.58 4.51s2.49-1.27 2.45-4.51Zm7.04-3.11h8.8l.04 3.57h-8.8l-.04-3.57Zm11.03.3c-.16-7.04 2.54-10.28 8.78-10.28s9.27 2.86 8.11 8.25h-4.9c.56-3.47-.43-4.82-2.67-4.82-2.62 0-3.71 1.75-3.66 6.85.05 5.1 1.18 6.79 3.79 6.79 2.2 0 3.13-1.4 2.5-5.11h5.11c1.28 5.58-1.14 8.56-7.28 8.56s-9.61-3.17-9.78-10.24Zm19.62-9.99 4.66-.5.07 7.88c.99-1.27 2.68-1.95 4.32-1.95 3.34 0 4.42 1.71 4.47 6.33l.08 8.19h-4.69l-.1-8.44c-.02-2.32-.45-3.05-1.73-3.05-1.49 0-2.32 1.19-2.29 3.38l.09 8.11h-4.68l-.2-19.95Zm15.59 12.78c-.03-5.07 1.68-7.37 5.72-7.37 1.97 0 3.78.7 4.86 2.14l.62-1.92h3.1l.14 14.32h-3.1l-.65-1.91c-.94 1.46-2.45 2.13-4.42 2.13-4.03 0-6.22-2.34-6.27-7.39Zm9.88 0c-.03-3.17-.83-4.48-2.54-4.48s-2.52 1.31-2.49 4.48c.04 3.18.85 4.5 2.57 4.5s2.5-1.31 2.45-4.5Zm7.23-12.79h4.69l.02 3.73h-4.69l-.02-3.73Zm.03 5.69h4.69l.16 14.27h-4.69l-.16-14.27Zm7.55 0h3.08l.67 2.06c.97-1.38 2.65-2.31 4.92-2.31 3.47 0 4.76 1.68 4.81 6.33l.08 8.19h-4.69l-.09-8.34c-.02-2.4-.45-3.15-1.76-3.15-1.45 0-2.29 1.26-2.26 3.49l.09 8h-4.68l-.16-14.27Zm34.31 11.23h-6.6l-.84 3.03h-5.37l7.4-19.96h4.76l7.42 19.96h-5.82l-.95-3.03Zm-.96-3.02-2.56-8.17-2.25 8.17h4.82Zm8.6-8.21h3.1l.66 1.92c.99-1.45 2.6-2.14 4.52-2.14 4.02 0 6.06 2.28 6.16 7.37.09 5.09-1.64 7.39-5.26 7.39-1.65 0-3.37-.46-4.37-1.62l.06 6.61-4.68.61-.2-20.14Zm9.58 7.14c-.03-3.21-.85-4.51-2.58-4.51s-2.49 1.3-2.45 4.51c.02 3.24.82 4.49 2.54 4.49s2.51-1.26 2.49-4.49Zm7.11-7.14h3.1l.66 1.92c.99-1.45 2.6-2.14 4.52-2.14 4.02 0 6.06 2.28 6.16 7.37.09 5.09-1.64 7.39-5.25 7.39-1.65 0-3.37-.46-4.37-1.62l.06 6.61-4.68.61-.2-20.14Zm9.59 7.14c-.03-3.21-.85-4.51-2.58-4.51s-2.49 1.3-2.45 4.51c.02 3.24.82 4.49 2.54 4.49s2.51-1.26 2.49-4.49Zm6.61 2.65H194c-.3 1.64.48 2.46 2.03 2.46 1.42 0 2.05-.53 2.03-1.49-.08-2.78-7.82-2.28-8.19-7.04-.21-2.59 1.88-4.01 5.88-4.01 4.76 0 6.95 1.35 6.42 4.26h-3.97c.29-1.3-.3-1.98-1.67-1.98-1.21 0-1.8.46-1.77 1.28.1 2.62 7.67 2.12 8.01 6.9.14 2.88-2.04 4.37-6.3 4.36-4.95 0-7.12-1.5-6.58-4.74Zm23.08-7.05h-2.39l-.03-2.74h2.39v-.83c-.03-3.88 1.92-5.25 5.9-5.25 4.74 0 6.78 1.05 5.75 4.89h-3.81c.42-1.72-.22-2.38-1.44-2.38-1.08 0-1.74.57-1.72 2.61v.97h3.54l.03 2.74h-3.53l.17 16.78-4.68.61-.17-17.4Z"/>
		<path d="M222.14 102.81c-.04-4.74 1.95-7.46 7.03-7.46s7.56 2.71 7.61 7.46c.04 4.76-1.93 7.34-7.05 7.34s-7.56-2.59-7.59-7.34Zm9.83 0c-.05-3.43-.9-4.65-2.55-4.65s-2.48 1.22-2.43 4.65c.02 3.36.9 4.58 2.51 4.58s2.48-1.24 2.47-4.58Zm7.07-7.19h3.09l.6 2.04c.95-1.46 2.36-2.26 3.98-2.26 3.45 0 4.85 2.24 3.91 6.88h-3.75c.48-2.69 0-3.94-1.13-3.94-1.22 0-1.96 1.18-1.95 3.4l.1 8.16h-4.69l-.16-14.27Zm21.18-5.69h5.49l.05 7.99h5.35l-.05-7.99h5.49l.18 19.97h-5.49l-.07-8.39h-5.35l.07 8.39h-5.49l-.18-19.97Zm19.06 12.88c-.04-4.74 1.95-7.46 7.03-7.46s7.56 2.71 7.61 7.46c.04 4.76-1.93 7.34-7.05 7.34s-7.56-2.59-7.59-7.34Zm9.83 0c-.05-3.43-.9-4.65-2.55-4.65s-2.48 1.22-2.43 4.65c.02 3.36.9 4.58 2.51 4.58s2.48-1.24 2.47-4.58Zm7.07-7.19h3.1l.59 1.99c.94-1.36 2.53-2.22 4.33-2.22s3.15.7 3.82 2.27c.94-1.4 2.5-2.27 4.27-2.27 3.28 0 4.63 1.7 4.67 5.9l.09 8.6h-4.69l-.09-8.54c-.03-2.2-.48-2.97-1.46-2.97-1.25 0-1.89 1.06-1.86 3.29l.1 8.22h-4.69l-.09-8.54c-.02-2.22-.51-2.97-1.45-2.97-1.22 0-1.92 1.04-1.89 3.29l.1 8.22h-4.69l-.16-14.27Zm22.87 7.04c-.04-4.96 2-7.32 6.83-7.32s7.61 2.04 6.82 8.41h-8.82c0 2.8.78 3.97 2.57 3.97 1.48 0 2.19-.78 1.95-2.28h4.29c.56 3.3-1.49 4.74-6.12 4.74-4.96 0-7.49-2.46-7.52-7.53Zm9.25-1.09c.14-2.6-.51-3.69-2.06-3.69s-2.32 1.04-2.36 3.69h4.42Zm7.78 3.49-.07-6.69h-2.38l-.03-2.75h.93c2.63 0 2.75-.08 2.71-2.73v-1.57l3.4-.34.03 4.64h5.2l.03 2.75h-5.2l.07 6.64c.02 1.84.55 2.4 1.35 2.4 1.1 0 1.62-1.37.98-4.33h3.42c1.1 5.13-.53 7-4.56 7-3.77 0-5.83-1.4-5.87-5.02Zm11.86-2.25c-.04-4.74 1.95-7.46 7.03-7.46s7.56 2.71 7.61 7.46c.04 4.76-1.93 7.34-7.05 7.34s-7.56-2.59-7.59-7.34Zm9.83 0c-.05-3.43-.9-4.65-2.55-4.65s-2.48 1.22-2.43 4.65c.02 3.36.9 4.58 2.51 4.58s2.48-1.24 2.47-4.58Zm5.69-7.19h4.81l2.35 8.51 2.3-8.51h3.31l2.31 8.51 1.93-8.51h4.07l-4.67 14.27h-3.33l-2.35-8.42-2.32 8.42h-3.5l-4.89-14.27Zm22.56 0h3.08l.67 2.06c.98-1.38 2.65-2.31 4.92-2.31 3.47 0 4.76 1.68 4.81 6.33l.08 8.19h-4.69l-.1-8.34c-.02-2.4-.45-3.15-1.76-3.15-1.45 0-2.29 1.26-2.26 3.49l.09 8h-4.68l-.16-14.27Zm22.71 7.9h5.22c-.5 2.37.41 3.49 2.4 3.49 1.74 0 2.78-.66 2.72-2.18-.15-3.77-9.74-3.01-10.44-9.6-.38-3.61 2.33-5.55 7.04-5.55 5.82 0 8.82 1.98 7.83 5.97h-4.87c.39-1.99-.48-2.9-2.29-2.9-1.45 0-2.34.63-2.29 1.87.14 3.78 10.09 3.07 10.52 9.55.28 4.13-2.37 5.99-7.74 5.99-6.31 0-9.23-2.05-8.09-6.64Zm17.73-13.58 4.66-.5.07 7.88c.99-1.27 2.68-1.95 4.32-1.95 3.34 0 4.42 1.71 4.47 6.33l.09 8.19h-4.69l-.1-8.44c-.02-2.32-.45-3.05-1.73-3.05-1.49 0-2.32 1.19-2.3 3.38l.09 8.11h-4.68l-.2-19.95Zm15.6 12.87c-.04-4.74 1.95-7.46 7.03-7.46s7.56 2.71 7.61 7.46c.04 4.76-1.93 7.34-7.05 7.34s-7.56-2.59-7.59-7.34Zm9.82 0c-.05-3.43-.9-4.65-2.55-4.65s-2.48 1.22-2.43 4.65c.02 3.36.9 4.58 2.51 4.58s2.48-1.24 2.47-4.58Zm7.07-7.19h3.1l.66 1.92c.99-1.45 2.6-2.14 4.52-2.14 4.02 0 6.06 2.28 6.16 7.37.09 5.09-1.64 7.39-5.25 7.39-1.65 0-3.37-.46-4.37-1.62l.06 6.61-4.68.61-.2-20.14Zm9.59 7.14c-.03-3.21-.85-4.51-2.58-4.51s-2.49 1.3-2.45 4.51c.02 3.24.82 4.49 2.54 4.49s2.51-1.26 2.49-4.49Zm6.61 2.65h4.12c-.3 1.64.48 2.46 2.03 2.46 1.42 0 2.05-.53 2.03-1.49-.08-2.78-7.82-2.28-8.19-7.04-.21-2.59 1.88-4.01 5.88-4.01 4.76 0 6.95 1.35 6.42 4.26h-3.97c.29-1.3-.3-1.98-1.67-1.98-1.21 0-1.8.46-1.77 1.28.1 2.62 7.67 2.12 8.01 6.9.14 2.88-2.04 4.37-6.3 4.36-4.95 0-7.12-1.5-6.58-4.74ZM490 89.93h5.53l-.93 13.45h-3.45L490 89.93Zm.56 15.54h4.69l.05 4.42h-4.69l-.05-4.42Z"/>
		<path d="M23.13.83h24.95C72.6.83 80.06 8.4 74.44 26.48c-5.52 17.79-15.22 26.07-38.28 26.07h-8.67l-7.05 22.62H0L23.13.83ZM37.8 39.91c7.44 0 11.99-3.14 15.21-13.43 3.18-10.17.84-12.98-7.15-12.98h-6.25l-8.24 26.41h6.42ZM89.3.83h20.44l-23.09 74.3H66.21L89.3.83Zm9.22 64.88 45.11-51.72h-28.51L119.24.82h53.92l-2.96 9.38-45.41 51.68h29.48l-4.05 13.21H95.66l2.85-9.38Zm59.81 0 45.11-51.72h-28.51L179.05.82h53.92l-2.96 9.38-45.41 51.68h29.48l-4.05 13.21h-54.56l2.85-9.38Zm155.61-26.87C322.41 11.44 335.59.68 358.26.68s32.29 10.61 23.7 38.16c-8.51 27.47-21.53 38.08-44.31 38.08s-32.2-10.68-23.71-38.08Zm46.6-.04c6.02-19.46 4.09-25.41-4.7-25.41s-14.48 5.96-20.54 25.41c-6.06 19.42-4 25.26 4.83 25.26s14.39-5.88 20.41-25.26Zm31.93-37.11h21.27l-5.16 49.12 26.15-49.12h18.15l-5.16 49.16L472.6 1.69h17.88l-43.54 74.26h-18.65l4.37-47.57-25.36 47.57h-18.15l3.33-74.26Zm85.26 57.82h17.46l-5.06 16.44h-17.46l5.06-16.44Zm16.44-57.82h20.59l-19.48 50.05h-12.86l11.75-50.05Z"/>
		<path d="m224.59 29.49 55.76 25.05-76.76.81 21-25.86z"/>
		<path d="m266.19 48.18 1.23 6.5 12.93-.14-14.16-6.36zm-37.34 6.9 19.3-.2 5.12-12.5-15.37-6.91-9.05 19.61zm-1.17 2.54-7.53 16.31h20.2l6.76-16.52-19.43.21z"/>
		<path d="m301.35 0-17.78 46.46L276.71.4h-22.62l-15.13 32.78 15.27 6.86 7.13-17.42 4.26 22.53 15.76 7.08c1.08.49 1.68 1.66 1.44 2.82a2.532 2.532 0 0 1-2.44 2.01l-12.48.13 3.16 16.74h21.82L321.55 0h-20.2Z"/>
	</symbol>

	<symbol id="logo-triangle" width="76.76" height="25.86" viewBox="0 0 76.76 25.86">
		<path d="m0 25.86 76.76-.81-55.76-25.05z"/>
	</symbol>

	<symbol id="phone" width="640" height="1280" viewBox="0 0 640 1280">
		<path d="M80 0C35.68 0 0 35.68 0 80v1120c0 44.32 35.68 80 80 80h480c44.32 0 80-35.68 80-80V80c0-44.32-35.68-80-80-80H80zm0 24h80v26c0 13.296 10.704 24 24 24h272c13.296 0 24-10.704 24-24V24h80c31.024 0 56 24.976 56 56v1120c0 31.024-24.976 56-56 56H80c-31.024 0-56-24.976-56-56V80c0-31.024 24.976-56 56-56z"/>
	</symbol>

	<symbol id="arrow-l" width="6" height="16" viewBox="0 0 6 16">
		<path d="m6 0l0 4l-4 4l4 4l0 4l-6-8z"/>
	</symbol>

	<symbol id="arrow-r" width="6" height="16" viewBox="0 0 6 16">
		<path d="m0 0l0 4l4 4l-4 4l0 4l6-8z"/>
	</symbol>

	<symbol id="chart-1" width="1200" height="1200" viewBox="0 0 1200 1200">
		<path fill="none" stroke="var(--color-d1)" vector-effect="non-scaling-stroke" stroke-width="2" d="M150 0v1050m0 0h1050"/>
		<path fill="none" stroke="var(--color-d1)" vector-effect="non-scaling-stroke" stroke-dasharray="10 10" stroke-width="2" d="M150 50h1050M150 250h1050M150 450h1050M150 650h1050M150 850h1050"/>
		<text xml:space="preserve" x="120" y="1050" fill="none" font-family="inherit" font-size="32" letter-spacing="0" word-spacing="0"><tspan x="120" y="1050" fill="var(--color-b0)" stroke="none" font-family="inherit" font-weight="400" text-anchor="end">0</tspan></text>
		<text xml:space="preserve" x="120" y="850" fill="none" font-family="inherit" font-size="32" letter-spacing="0" word-spacing="0"><tspan x="120" y="850" fill="var(--color-b0)" stroke="none" font-family="inherit" font-weight="400" text-anchor="end">1000</tspan></text>
		<text xml:space="preserve" x="120" y="650" fill="none" font-family="inherit" font-size="32" letter-spacing="0" word-spacing="0"><tspan x="120" y="650" fill="var(--color-b0)" stroke="none" font-family="inherit" font-weight="400" text-anchor="end">2000</tspan></text>
		<text xml:space="preserve" x="120" y="450" fill="none" font-family="inherit" font-size="32" letter-spacing="0" word-spacing="0"><tspan x="120" y="450" fill="var(--color-b0)" stroke="none" font-family="inherit" font-weight="400" text-anchor="end">3000</tspan></text>
		<text xml:space="preserve" x="120" y="250" fill="none" font-family="inherit" font-size="32" letter-spacing="0" word-spacing="0"><tspan x="120" y="250" fill="var(--color-b0)" stroke="none" font-family="inherit" font-weight="400" text-anchor="end">4000</tspan></text>
		<text xml:space="preserve" x="120" y="50" fill="none" font-family="inherit" font-size="32" letter-spacing="0" word-spacing="0"><tspan x="120" y="50" fill="var(--color-b0)" stroke="none" font-family="inherit" font-weight="400" text-anchor="end">5000</tspan></text>
		<path fill="var(--color-r0)" d="M700 1010h400v40H700z"/>
		<path fill="var(--color-g1)" d="M250 1010h400v40H250z"/>
		<rect width="400" height="710.62" x="250" y="339.38" fill="var(--color-g1)" rx="40" ry="40"/>
		<rect width="400" height="892.88" x="700" y="157.12" fill="var(--color-r0)" rx="40" ry="40"/>
		<text xml:space="preserve" x="449.422" y="1130" fill="none" font-family="inherit" font-size="32" letter-spacing="0" word-spacing="0"><tspan x="449.422" y="1130" fill="var(--color-b0)" stroke="none" font-family="inherit" font-weight="400" text-anchor="middle">BIG CHAINS</tspan></text>
		<text xml:space="preserve" x="900" y="1130" fill="none" font-family="inherit" font-size="32" letter-spacing="0" word-spacing="0"><tspan x="900" y="1130" fill="var(--color-b0)" stroke="none" font-family="inherit" font-weight="400" text-anchor="middle">LOCAL SHOPS</tspan></text>
		<text xml:space="preserve" x="449.422" y="439.38" fill="none" font-family="inherit" font-size="48" font-weight="900" letter-spacing="0" word-spacing="0"><tspan x="449.422" y="439.38" fill="var(--color-b0)" stroke="none" text-anchor="middle">35,531</tspan></text>
		<text xml:space="preserve" x="900" y="253.12" fill="none" font-family="inherit" font-size="48" font-weight="900" letter-spacing="0" word-spacing="0"><tspan x="900" y="253.12" fill="var(--color-b0)" stroke="none" text-anchor="middle">44,644</tspan></text>
	</symbol>

	<symbol id="chart-2" width="1200" height="1200" viewBox="0 0 1200 1200">
		<path fill="none" stroke="var(--color-d1)" vector-effect="non-scaling-stroke" stroke-width="2" d="M150 0v1050m0 0h1050"/>
		<path fill="none" stroke="var(--color-d1)" vector-effect="non-scaling-stroke" stroke-dasharray="10 10" stroke-width="2" d="M150 50h1050M150 383.333h1050M150 550h1050M150 716.667h1050M150 883.333h1050 M150 216.667h1050"/>
		<text xml:space="preserve" x="120" y="1050" fill="none" font-family="inherit" font-size="32" letter-spacing="0" word-spacing="0"><tspan x="120" y="1050" fill="var(--color-b0)" stroke="none" font-family="inherit" font-weight="400" text-anchor="end">0</tspan></text>
		<text xml:space="preserve" x="120" y="883.333" fill="none" font-family="inherit" font-size="32" letter-spacing="0" word-spacing="0"><tspan x="120" y="883.333" fill="var(--color-b0)" stroke="none" font-family="inherit" font-weight="400" text-anchor="end">5</tspan></text>
		<text xml:space="preserve" x="120" y="716.667" fill="none" font-family="inherit" font-size="32" letter-spacing="0" word-spacing="0"><tspan x="120" y="716.667" fill="var(--color-b0)" stroke="none" font-family="inherit" font-weight="400" text-anchor="end">10</tspan></text>
		<text xml:space="preserve" x="120" y="550" fill="none" font-family="inherit" font-size="32" letter-spacing="0" word-spacing="0"><tspan x="120" y="550" fill="var(--color-b0)" stroke="none" font-family="inherit" font-weight="400" text-anchor="end">15</tspan></text>
		<text xml:space="preserve" x="120" y="383.333" fill="none" font-family="inherit" font-size="32" letter-spacing="0" word-spacing="0"><tspan x="120" y="383.333" fill="var(--color-b0)" stroke="none" font-family="inherit" font-weight="400" text-anchor="end">20</tspan></text>
		<text xml:space="preserve" x="120" y="216.667" fill="none" font-family="inherit" font-size="32" letter-spacing="0" word-spacing="0"><tspan x="120" y="216.667" fill="var(--color-b0)" stroke="none" font-family="inherit" font-weight="400" text-anchor="end">25</tspan></text>
		<text xml:space="preserve" x="120" y="50" fill="none" font-family="inherit" font-size="32" letter-spacing="0" word-spacing="0"><tspan x="120" y="50" fill="var(--color-b0)" stroke="none" font-family="inherit" font-weight="400" text-anchor="end">30</tspan></text>
		<path fill="var(--color-r0)" d="M700 1010h400v40H700z"/>
		<path fill="var(--color-g1)" d="M250 1010h400v40H250z"/>
		<rect width="400" height="900" x="250" y="150" fill="var(--color-g1)" rx="40" ry="40"/>
		<rect width="400" height="656.666" x="700" y="393.334" fill="var(--color-r0)" rx="40" ry="40"/>
		<text xml:space="preserve" x="449.422" y="1130" fill="none" font-family="inherit" font-size="32" letter-spacing="0" word-spacing="0"><tspan x="449.422" y="1130" fill="var(--color-b0)" stroke="none" font-family="inherit" font-weight="400" text-anchor="middle">BIG CHAINS</tspan></text>
		<text xml:space="preserve" x="900" y="1130" fill="none" font-family="inherit" font-size="32" letter-spacing="0" word-spacing="0"><tspan x="900" y="1130" fill="var(--color-b0)" stroke="none" font-family="inherit" font-weight="400" text-anchor="middle">LOCAL SHOPS</tspan></text>
		<text xml:space="preserve" x="449.422" y="250" fill="none" font-family="inherit" font-size="48" font-weight="900" letter-spacing="0" word-spacing="0"><tspan x="449.422" y="250" fill="var(--color-b0)" stroke="none" text-anchor="middle">$27 Billion</tspan></text>
		<text xml:space="preserve" x="900" y="489.334" fill="none" font-family="inherit" font-size="48" font-weight="900" letter-spacing="0" word-spacing="0"><tspan x="900" y="489.334" fill="var(--color-b0)" stroke="none" text-anchor="middle">$19.7 Billion</tspan></text>
		<text xml:space="preserve" x="449.422" y="930" fill="none" font-family="inherit" font-size="48" font-weight="400" letter-spacing="0" word-spacing="0"><tspan x="449.422" y="930" fill="var(--color-b0)" stroke="none" text-anchor="middle" font-stretch="75%">Average per shop</tspan><tspan x="449.422" y="998" fill="var(--color-b0)" stroke="none" text-anchor="middle" font-weight="900">$766,000</tspan></text>
		<text xml:space="preserve" x="900" y="930" fill="none" font-family="inherit" font-size="48" font-weight="400" letter-spacing="0" word-spacing="0"><tspan x="900" y="930" fill="var(--color-b0)" stroke="none" text-anchor="middle" font-stretch="75%">Average per shop</tspan><tspan x="900" y="998" fill="var(--color-b0)" stroke="none" text-anchor="middle" font-weight="900">$443,000</tspan></text>
	</symbol>

	<view id="logo-color-view"  viewBox="0 0 514.76 116.09"/>
	<view id="logo-view" viewBox="0 0 514.76 116.09"/>
	<view id="phone-view" viewBox="0 0 640 1280"/>
	<view id="arrow-l-view" viewBox="0 0 6 16"/>
	<view id="arrow-r-view" viewBox="0 0 6 16"/>
	<view id="chart-1-view" viewBox="0 0 1200 1200"/>
	<view id="chart-2-view" viewBox="0 0 1200 1200"/>

	<use xlink:href="#logo-color" x="0" y="0" width="514.76" height="116.09"/>
	<use xlink:href="#logo" x="0" y="0" width="514.76" height="116.09"/>
	<use xlink:href="#phone" x="0" y="0" width="640" height="1280"/>
	<use xlink:href="#arrow-l" x="0" y="0" width="6" height="16"/>
	<use xlink:href="#arrow-r" x="0" y="0" width="6" height="16"/>
	<use xlink:href="#chart-1" x="0" y="0" width="1200" height="1200"/>
	<use xlink:href="#chart-2" x="0" y="0" width="1200" height="1200"/>
</svg>
