<svg xmlns="http://www.w3.org/2000/svg" xmlns:xlink="http://www.w3.org/1999/xlink">
	<symbol id="logo-color" width="514.76" height="116.09" viewBox="0 0 514.76 116.09">
		<path d="M1.51 89.93h7.35c6.1 0 8.47 1.44 8.5 5.39.02 2.33-1.03 3.79-2.98 4.23 2.25.54 3.59 2.08 3.6 4.79.04 4.03-2.21 5.55-8.65 5.55H1.7l-.18-19.97Zm7.25 8.16c2.26 0 2.97-.58 2.95-2.47-.02-1.87-.73-2.5-2.81-2.5H6.98l.05 4.97h1.73Zm.3 8.61c2.44 0 3.21-.71 3.21-2.83-.02-2.07-.91-2.85-3.5-2.85H7.06l.06 5.68h1.94Zm11.02-16.77h4.69l.02 3.73H20.1l-.02-3.73Zm.03 5.69h4.69l.16 14.27h-4.69l-.16-14.27Zm7.55 15.84h4.44c-.4 1.72.62 2.26 2.34 2.26s2.83-.61 2.79-3.54l-.03-1.68c-.96 1.14-2.33 1.63-4.21 1.63-3.62 0-5.71-2.25-5.8-7.39-.08-5.06 1.58-7.34 5.61-7.34 1.98 0 3.92.69 4.96 2.15l.6-1.93h3.1l.15 14.39c.05 4.52-2.64 6.09-7.27 6.09-5.08 0-7.47-1.03-6.68-4.63Zm9.41-8.72c-.03-3.19-.83-4.48-2.54-4.48s-2.52 1.29-2.49 4.48c.03 3.23.85 4.51 2.58 4.51s2.49-1.27 2.45-4.51Zm7.04-3.11h8.8l.04 3.57h-8.8l-.04-3.57Zm11.03.3c-.16-7.04 2.54-10.28 8.78-10.28s9.27 2.86 8.11 8.25h-4.9c.56-3.47-.43-4.82-2.67-4.82-2.62 0-3.71 1.75-3.66 6.85.05 5.1 1.18 6.79 3.79 6.79 2.2 0 3.13-1.4 2.5-5.11h5.11c1.28 5.58-1.14 8.56-7.28 8.56s-9.61-3.17-9.78-10.24Zm19.62-9.99 4.66-.5.07 7.88c.99-1.27 2.68-1.95 4.32-1.95 3.34 0 4.42 1.71 4.47 6.33l.08 8.19h-4.69l-.1-8.44c-.02-2.32-.45-3.05-1.73-3.05-1.49 0-2.32 1.19-2.29 3.38l.09 8.11h-4.68l-.2-19.95Zm15.59 12.78c-.03-5.07 1.68-7.37 5.72-7.37 1.97 0 3.78.7 4.86 2.14l.62-1.92h3.1l.14 14.32h-3.1l-.65-1.91c-.94 1.46-2.45 2.13-4.42 2.13-4.03 0-6.22-2.34-6.27-7.39Zm9.88 0c-.03-3.17-.83-4.48-2.54-4.48s-2.52 1.31-2.49 4.48c.04 3.18.85 4.5 2.57 4.5s2.5-1.31 2.45-4.5Zm7.23-12.79h4.69l.02 3.73h-4.69l-.02-3.73Zm.03 5.69h4.69l.16 14.27h-4.69l-.16-14.27Zm7.55 0h3.08l.67 2.06c.97-1.38 2.65-2.31 4.92-2.31 3.47 0 4.76 1.68 4.81 6.33l.08 8.19h-4.69l-.09-8.34c-.02-2.4-.45-3.15-1.76-3.15-1.45 0-2.29 1.26-2.26 3.49l.09 8h-4.68l-.16-14.27Zm34.31 11.23h-6.6l-.84 3.03h-5.37l7.4-19.96h4.76l7.42 19.96h-5.82l-.95-3.03Zm-.96-3.02-2.56-8.17-2.25 8.17h4.82Zm8.6-8.21h3.1l.66 1.92c.99-1.45 2.6-2.14 4.52-2.14 4.02 0 6.06 2.28 6.16 7.37.09 5.09-1.64 7.39-5.26 7.39-1.65 0-3.37-.46-4.37-1.62l.06 6.61-4.68.61-.2-20.14Zm9.58 7.14c-.03-3.21-.85-4.51-2.58-4.51s-2.49 1.3-2.45 4.51c.02 3.24.82 4.49 2.54 4.49s2.51-1.26 2.49-4.49Zm7.11-7.14h3.1l.66 1.92c.99-1.45 2.6-2.14 4.52-2.14 4.02 0 6.06 2.28 6.16 7.37.09 5.09-1.64 7.39-5.25 7.39-1.65 0-3.37-.46-4.37-1.62l.06 6.61-4.68.61-.2-20.14Zm9.59 7.14c-.03-3.21-.85-4.51-2.58-4.51s-2.49 1.3-2.45 4.51c.02 3.24.82 4.49 2.54 4.49s2.51-1.26 2.49-4.49Zm6.61 2.65H194c-.3 1.64.48 2.46 2.03 2.46 1.42 0 2.05-.53 2.03-1.49-.08-2.78-7.82-2.28-8.19-7.04-.21-2.59 1.88-4.01 5.88-4.01 4.76 0 6.95 1.35 6.42 4.26h-3.97c.29-1.3-.3-1.98-1.67-1.98-1.21 0-1.8.46-1.77 1.28.1 2.62 7.67 2.12 8.01 6.9.14 2.88-2.04 4.37-6.3 4.36-4.95 0-7.12-1.5-6.58-4.74Zm23.08-7.05h-2.39l-.03-2.74h2.39v-.83c-.03-3.88 1.92-5.25 5.9-5.25 4.74 0 6.78 1.05 5.75 4.89h-3.81c.42-1.72-.22-2.38-1.44-2.38-1.08 0-1.74.57-1.72 2.61v.97h3.54l.03 2.74h-3.53l.17 16.78-4.68.61-.17-17.4Z" fill="#3bb552"/>
		<path d="M222.14 102.81c-.04-4.74 1.95-7.46 7.03-7.46s7.56 2.71 7.61 7.46c.04 4.76-1.93 7.34-7.05 7.34s-7.56-2.59-7.59-7.34Zm9.83 0c-.05-3.43-.9-4.65-2.55-4.65s-2.48 1.22-2.43 4.65c.02 3.36.9 4.58 2.51 4.58s2.48-1.24 2.47-4.58Zm7.07-7.19h3.09l.6 2.04c.95-1.46 2.36-2.26 3.98-2.26 3.45 0 4.85 2.24 3.91 6.88h-3.75c.48-2.69 0-3.94-1.13-3.94-1.22 0-1.96 1.18-1.95 3.4l.1 8.16h-4.69l-.16-14.27Zm21.18-5.69h5.49l.05 7.99h5.35l-.05-7.99h5.49l.18 19.97h-5.49l-.07-8.39h-5.35l.07 8.39h-5.49l-.18-19.97Zm19.06 12.88c-.04-4.74 1.95-7.46 7.03-7.46s7.56 2.71 7.61 7.46c.04 4.76-1.93 7.34-7.05 7.34s-7.56-2.59-7.59-7.34Zm9.83 0c-.05-3.43-.9-4.65-2.55-4.65s-2.48 1.22-2.43 4.65c.02 3.36.9 4.58 2.51 4.58s2.48-1.24 2.47-4.58Zm7.07-7.19h3.1l.59 1.99c.94-1.36 2.53-2.22 4.33-2.22s3.15.7 3.82 2.27c.94-1.4 2.5-2.27 4.27-2.27 3.28 0 4.63 1.7 4.67 5.9l.09 8.6h-4.69l-.09-8.54c-.03-2.2-.48-2.97-1.46-2.97-1.25 0-1.89 1.06-1.86 3.29l.1 8.22h-4.69l-.09-8.54c-.02-2.22-.51-2.97-1.45-2.97-1.22 0-1.92 1.04-1.89 3.29l.1 8.22h-4.69l-.16-14.27Zm22.87 7.04c-.04-4.96 2-7.32 6.83-7.32s7.61 2.04 6.82 8.41h-8.82c0 2.8.78 3.97 2.57 3.97 1.48 0 2.19-.78 1.95-2.28h4.29c.56 3.3-1.49 4.74-6.12 4.74-4.96 0-7.49-2.46-7.52-7.53Zm9.25-1.09c.14-2.6-.51-3.69-2.06-3.69s-2.32 1.04-2.36 3.69h4.42Zm7.78 3.49-.07-6.69h-2.38l-.03-2.75h.93c2.63 0 2.75-.08 2.71-2.73v-1.57l3.4-.34.03 4.64h5.2l.03 2.75h-5.2l.07 6.64c.02 1.84.55 2.4 1.35 2.4 1.1 0 1.62-1.37.98-4.33h3.42c1.1 5.13-.53 7-4.56 7-3.77 0-5.83-1.4-5.87-5.02Zm11.86-2.25c-.04-4.74 1.95-7.46 7.03-7.46s7.56 2.71 7.61 7.46c.04 4.76-1.93 7.34-7.05 7.34s-7.56-2.59-7.59-7.34Zm9.83 0c-.05-3.43-.9-4.65-2.55-4.65s-2.48 1.22-2.43 4.65c.02 3.36.9 4.58 2.51 4.58s2.48-1.24 2.47-4.58Zm5.69-7.19h4.81l2.35 8.51 2.3-8.51h3.31l2.31 8.51 1.93-8.51h4.07l-4.67 14.27h-3.33l-2.35-8.42-2.32 8.42h-3.5l-4.89-14.27Zm22.56 0h3.08l.67 2.06c.98-1.38 2.65-2.31 4.92-2.31 3.47 0 4.76 1.68 4.81 6.33l.08 8.19h-4.69l-.1-8.34c-.02-2.4-.45-3.15-1.76-3.15-1.45 0-2.29 1.26-2.26 3.49l.09 8h-4.68l-.16-14.27Zm22.71 7.9h5.22c-.5 2.37.41 3.49 2.4 3.49 1.74 0 2.78-.66 2.72-2.18-.15-3.77-9.74-3.01-10.44-9.6-.38-3.61 2.33-5.55 7.04-5.55 5.82 0 8.82 1.98 7.83 5.97h-4.87c.39-1.99-.48-2.9-2.29-2.9-1.45 0-2.34.63-2.29 1.87.14 3.78 10.09 3.07 10.52 9.55.28 4.13-2.37 5.99-7.74 5.99-6.31 0-9.23-2.05-8.09-6.64Zm17.73-13.58 4.66-.5.07 7.88c.99-1.27 2.68-1.95 4.32-1.95 3.34 0 4.42 1.71 4.47 6.33l.09 8.19h-4.69l-.1-8.44c-.02-2.32-.45-3.05-1.73-3.05-1.49 0-2.32 1.19-2.3 3.38l.09 8.11h-4.68l-.2-19.95Zm15.6 12.87c-.04-4.74 1.95-7.46 7.03-7.46s7.56 2.71 7.61 7.46c.04 4.76-1.93 7.34-7.05 7.34s-7.56-2.59-7.59-7.34Zm9.82 0c-.05-3.43-.9-4.65-2.55-4.65s-2.48 1.22-2.43 4.65c.02 3.36.9 4.58 2.51 4.58s2.48-1.24 2.47-4.58Zm7.07-7.19h3.1l.66 1.92c.99-1.45 2.6-2.14 4.52-2.14 4.02 0 6.06 2.28 6.16 7.37.09 5.09-1.64 7.39-5.25 7.39-1.65 0-3.37-.46-4.37-1.62l.06 6.61-4.68.61-.2-20.14Zm9.59 7.14c-.03-3.21-.85-4.51-2.58-4.51s-2.49 1.3-2.45 4.51c.02 3.24.82 4.49 2.54 4.49s2.51-1.26 2.49-4.49Zm6.61 2.65h4.12c-.3 1.64.48 2.46 2.03 2.46 1.42 0 2.05-.53 2.03-1.49-.08-2.78-7.82-2.28-8.19-7.04-.21-2.59 1.88-4.01 5.88-4.01 4.76 0 6.95 1.35 6.42 4.26h-3.97c.29-1.3-.3-1.98-1.67-1.98-1.21 0-1.8.46-1.77 1.28.1 2.62 7.67 2.12 8.01 6.9.14 2.88-2.04 4.37-6.3 4.36-4.95 0-7.12-1.5-6.58-4.74ZM490 89.93h5.53l-.93 13.45h-3.45L490 89.93Zm.56 15.54h4.69l.05 4.42h-4.69l-.05-4.42Z" fill="#3bb552"/>
		<path d="M23.13.83h24.95C72.6.83 80.06 8.4 74.44 26.48c-5.52 17.79-15.22 26.07-38.28 26.07h-8.67l-7.05 22.62H0L23.13.83ZM37.8 39.91c7.44 0 11.99-3.14 15.21-13.43 3.18-10.17.84-12.98-7.15-12.98h-6.25l-8.24 26.41h6.42ZM89.3.83h20.44l-23.09 74.3H66.21L89.3.83Zm9.22 64.88 45.11-51.72h-28.51L119.24.82h53.92l-2.96 9.38-45.41 51.68h29.48l-4.05 13.21H95.66l2.85-9.38Zm59.81 0 45.11-51.72h-28.51L179.05.82h53.92l-2.96 9.38-45.41 51.68h29.48l-4.05 13.21h-54.56l2.85-9.38Zm155.61-26.87C322.41 11.44 335.59.68 358.26.68s32.29 10.61 23.7 38.16c-8.51 27.47-21.53 38.08-44.31 38.08s-32.2-10.68-23.71-38.08Zm46.6-.04c6.02-19.46 4.09-25.41-4.7-25.41s-14.48 5.96-20.54 25.41c-6.06 19.42-4 25.26 4.83 25.26s14.39-5.88 20.41-25.26Zm31.93-37.11h21.27l-5.16 49.12 26.15-49.12h18.15l-5.16 49.16L472.6 1.69h17.88l-43.54 74.26h-18.65l4.37-47.57-25.36 47.57h-18.15l3.33-74.26Zm85.26 57.82h17.46l-5.06 16.44h-17.46l5.06-16.44Zm16.44-57.82h20.59l-19.48 50.05h-12.86l11.75-50.05Z" fill="#e42936"/>
		<path d="m224.59 29.49 55.76 25.05-76.76.81 21-25.86z" fill="#e42936"/>
		<path d="m266.19 48.18 1.23 6.5 12.93-.14-14.16-6.36zm-37.34 6.9 19.3-.2 5.12-12.5-15.37-6.91-9.05 19.61zm-1.17 2.54-7.53 16.31h20.2l6.76-16.52-19.43.21z" fill="#e42936"/>
		<path d="m301.35 0-17.78 46.46L276.71.4h-22.62l-15.13 32.78 15.27 6.86 7.13-17.42 4.26 22.53 15.76 7.08c1.08.49 1.68 1.66 1.44 2.82a2.532 2.532 0 0 1-2.44 2.01l-12.48.13 3.16 16.74h21.82L321.55 0h-20.2Z" fill="#e42936"/>
	</symbol>

	<symbol id="logo" width="514.76" height="116.09" viewBox="0 0 514.76 116.09">
		<path d="M1.51 89.93h7.35c6.1 0 8.47 1.44 8.5 5.39.02 2.33-1.03 3.79-2.98 4.23 2.25.54 3.59 2.08 3.6 4.79.04 4.03-2.21 5.55-8.65 5.55H1.7l-.18-19.97Zm7.25 8.16c2.26 0 2.97-.58 2.95-2.47-.02-1.87-.73-2.5-2.81-2.5H6.98l.05 4.97h1.73Zm.3 8.61c2.44 0 3.21-.71 3.21-2.83-.02-2.07-.91-2.85-3.5-2.85H7.06l.06 5.68h1.94Zm11.02-16.77h4.69l.02 3.73H20.1l-.02-3.73Zm.03 5.69h4.69l.16 14.27h-4.69l-.16-14.27Zm7.55 15.84h4.44c-.4 1.72.62 2.26 2.34 2.26s2.83-.61 2.79-3.54l-.03-1.68c-.96 1.14-2.33 1.63-4.21 1.63-3.62 0-5.71-2.25-5.8-7.39-.08-5.06 1.58-7.34 5.61-7.34 1.98 0 3.92.69 4.96 2.15l.6-1.93h3.1l.15 14.39c.05 4.52-2.64 6.09-7.27 6.09-5.08 0-7.47-1.03-6.68-4.63Zm9.41-8.72c-.03-3.19-.83-4.48-2.54-4.48s-2.52 1.29-2.49 4.48c.03 3.23.85 4.51 2.58 4.51s2.49-1.27 2.45-4.51Zm7.04-3.11h8.8l.04 3.57h-8.8l-.04-3.57Zm11.03.3c-.16-7.04 2.54-10.28 8.78-10.28s9.27 2.86 8.11 8.25h-4.9c.56-3.47-.43-4.82-2.67-4.82-2.62 0-3.71 1.75-3.66 6.85.05 5.1 1.18 6.79 3.79 6.79 2.2 0 3.13-1.4 2.5-5.11h5.11c1.28 5.58-1.14 8.56-7.28 8.56s-9.61-3.17-9.78-10.24Zm19.62-9.99 4.66-.5.07 7.88c.99-1.27 2.68-1.95 4.32-1.95 3.34 0 4.42 1.71 4.47 6.33l.08 8.19h-4.69l-.1-8.44c-.02-2.32-.45-3.05-1.73-3.05-1.49 0-2.32 1.19-2.29 3.38l.09 8.11h-4.68l-.2-19.95Zm15.59 12.78c-.03-5.07 1.68-7.37 5.72-7.37 1.97 0 3.78.7 4.86 2.14l.62-1.92h3.1l.14 14.32h-3.1l-.65-1.91c-.94 1.46-2.45 2.13-4.42 2.13-4.03 0-6.22-2.34-6.27-7.39Zm9.88 0c-.03-3.17-.83-4.48-2.54-4.48s-2.52 1.31-2.49 4.48c.04 3.18.85 4.5 2.57 4.5s2.5-1.31 2.45-4.5Zm7.23-12.79h4.69l.02 3.73h-4.69l-.02-3.73Zm.03 5.69h4.69l.16 14.27h-4.69l-.16-14.27Zm7.55 0h3.08l.67 2.06c.97-1.38 2.65-2.31 4.92-2.31 3.47 0 4.76 1.68 4.81 6.33l.08 8.19h-4.69l-.09-8.34c-.02-2.4-.45-3.15-1.76-3.15-1.45 0-2.29 1.26-2.26 3.49l.09 8h-4.68l-.16-14.27Zm34.31 11.23h-6.6l-.84 3.03h-5.37l7.4-19.96h4.76l7.42 19.96h-5.82l-.95-3.03Zm-.96-3.02-2.56-8.17-2.25 8.17h4.82Zm8.6-8.21h3.1l.66 1.92c.99-1.45 2.6-2.14 4.52-2.14 4.02 0 6.06 2.28 6.16 7.37.09 5.09-1.64 7.39-5.26 7.39-1.65 0-3.37-.46-4.37-1.62l.06 6.61-4.68.61-.2-20.14Zm9.58 7.14c-.03-3.21-.85-4.51-2.58-4.51s-2.49 1.3-2.45 4.51c.02 3.24.82 4.49 2.54 4.49s2.51-1.26 2.49-4.49Zm7.11-7.14h3.1l.66 1.92c.99-1.45 2.6-2.14 4.52-2.14 4.02 0 6.06 2.28 6.16 7.37.09 5.09-1.64 7.39-5.25 7.39-1.65 0-3.37-.46-4.37-1.62l.06 6.61-4.68.61-.2-20.14Zm9.59 7.14c-.03-3.21-.85-4.51-2.58-4.51s-2.49 1.3-2.45 4.51c.02 3.24.82 4.49 2.54 4.49s2.51-1.26 2.49-4.49Zm6.61 2.65H194c-.3 1.64.48 2.46 2.03 2.46 1.42 0 2.05-.53 2.03-1.49-.08-2.78-7.82-2.28-8.19-7.04-.21-2.59 1.88-4.01 5.88-4.01 4.76 0 6.95 1.35 6.42 4.26h-3.97c.29-1.3-.3-1.98-1.67-1.98-1.21 0-1.8.46-1.77 1.28.1 2.62 7.67 2.12 8.01 6.9.14 2.88-2.04 4.37-6.3 4.36-4.95 0-7.12-1.5-6.58-4.74Zm23.08-7.05h-2.39l-.03-2.74h2.39v-.83c-.03-3.88 1.92-5.25 5.9-5.25 4.74 0 6.78 1.05 5.75 4.89h-3.81c.42-1.72-.22-2.38-1.44-2.38-1.08 0-1.74.57-1.72 2.61v.97h3.54l.03 2.74h-3.53l.17 16.78-4.68.61-.17-17.4Z"/>
		<path d="M222.14 102.81c-.04-4.74 1.95-7.46 7.03-7.46s7.56 2.71 7.61 7.46c.04 4.76-1.93 7.34-7.05 7.34s-7.56-2.59-7.59-7.34Zm9.83 0c-.05-3.43-.9-4.65-2.55-4.65s-2.48 1.22-2.43 4.65c.02 3.36.9 4.58 2.51 4.58s2.48-1.24 2.47-4.58Zm7.07-7.19h3.09l.6 2.04c.95-1.46 2.36-2.26 3.98-2.26 3.45 0 4.85 2.24 3.91 6.88h-3.75c.48-2.69 0-3.94-1.13-3.94-1.22 0-1.96 1.18-1.95 3.4l.1 8.16h-4.69l-.16-14.27Zm21.18-5.69h5.49l.05 7.99h5.35l-.05-7.99h5.49l.18 19.97h-5.49l-.07-8.39h-5.35l.07 8.39h-5.49l-.18-19.97Zm19.06 12.88c-.04-4.74 1.95-7.46 7.03-7.46s7.56 2.71 7.61 7.46c.04 4.76-1.93 7.34-7.05 7.34s-7.56-2.59-7.59-7.34Zm9.83 0c-.05-3.43-.9-4.65-2.55-4.65s-2.48 1.22-2.43 4.65c.02 3.36.9 4.58 2.51 4.58s2.48-1.24 2.47-4.58Zm7.07-7.19h3.1l.59 1.99c.94-1.36 2.53-2.22 4.33-2.22s3.15.7 3.82 2.27c.94-1.4 2.5-2.27 4.27-2.27 3.28 0 4.63 1.7 4.67 5.9l.09 8.6h-4.69l-.09-8.54c-.03-2.2-.48-2.97-1.46-2.97-1.25 0-1.89 1.06-1.86 3.29l.1 8.22h-4.69l-.09-8.54c-.02-2.22-.51-2.97-1.45-2.97-1.22 0-1.92 1.04-1.89 3.29l.1 8.22h-4.69l-.16-14.27Zm22.87 7.04c-.04-4.96 2-7.32 6.83-7.32s7.61 2.04 6.82 8.41h-8.82c0 2.8.78 3.97 2.57 3.97 1.48 0 2.19-.78 1.95-2.28h4.29c.56 3.3-1.49 4.74-6.12 4.74-4.96 0-7.49-2.46-7.52-7.53Zm9.25-1.09c.14-2.6-.51-3.69-2.06-3.69s-2.32 1.04-2.36 3.69h4.42Zm7.78 3.49-.07-6.69h-2.38l-.03-2.75h.93c2.63 0 2.75-.08 2.71-2.73v-1.57l3.4-.34.03 4.64h5.2l.03 2.75h-5.2l.07 6.64c.02 1.84.55 2.4 1.35 2.4 1.1 0 1.62-1.37.98-4.33h3.42c1.1 5.13-.53 7-4.56 7-3.77 0-5.83-1.4-5.87-5.02Zm11.86-2.25c-.04-4.74 1.95-7.46 7.03-7.46s7.56 2.71 7.61 7.46c.04 4.76-1.93 7.34-7.05 7.34s-7.56-2.59-7.59-7.34Zm9.83 0c-.05-3.43-.9-4.65-2.55-4.65s-2.48 1.22-2.43 4.65c.02 3.36.9 4.58 2.51 4.58s2.48-1.24 2.47-4.58Zm5.69-7.19h4.81l2.35 8.51 2.3-8.51h3.31l2.31 8.51 1.93-8.51h4.07l-4.67 14.27h-3.33l-2.35-8.42-2.32 8.42h-3.5l-4.89-14.27Zm22.56 0h3.08l.67 2.06c.98-1.38 2.65-2.31 4.92-2.31 3.47 0 4.76 1.68 4.81 6.33l.08 8.19h-4.69l-.1-8.34c-.02-2.4-.45-3.15-1.76-3.15-1.45 0-2.29 1.26-2.26 3.49l.09 8h-4.68l-.16-14.27Zm22.71 7.9h5.22c-.5 2.37.41 3.49 2.4 3.49 1.74 0 2.78-.66 2.72-2.18-.15-3.77-9.74-3.01-10.44-9.6-.38-3.61 2.33-5.55 7.04-5.55 5.82 0 8.82 1.98 7.83 5.97h-4.87c.39-1.99-.48-2.9-2.29-2.9-1.45 0-2.34.63-2.29 1.87.14 3.78 10.09 3.07 10.52 9.55.28 4.13-2.37 5.99-7.74 5.99-6.31 0-9.23-2.05-8.09-6.64Zm17.73-13.58 4.66-.5.07 7.88c.99-1.27 2.68-1.95 4.32-1.95 3.34 0 4.42 1.71 4.47 6.33l.09 8.19h-4.69l-.1-8.44c-.02-2.32-.45-3.05-1.73-3.05-1.49 0-2.32 1.19-2.3 3.38l.09 8.11h-4.68l-.2-19.95Zm15.6 12.87c-.04-4.74 1.95-7.46 7.03-7.46s7.56 2.71 7.61 7.46c.04 4.76-1.93 7.34-7.05 7.34s-7.56-2.59-7.59-7.34Zm9.82 0c-.05-3.43-.9-4.65-2.55-4.65s-2.48 1.22-2.43 4.65c.02 3.36.9 4.58 2.51 4.58s2.48-1.24 2.47-4.58Zm7.07-7.19h3.1l.66 1.92c.99-1.45 2.6-2.14 4.52-2.14 4.02 0 6.06 2.28 6.16 7.37.09 5.09-1.64 7.39-5.25 7.39-1.65 0-3.37-.46-4.37-1.62l.06 6.61-4.68.61-.2-20.14Zm9.59 7.14c-.03-3.21-.85-4.51-2.58-4.51s-2.49 1.3-2.45 4.51c.02 3.24.82 4.49 2.54 4.49s2.51-1.26 2.49-4.49Zm6.61 2.65h4.12c-.3 1.64.48 2.46 2.03 2.46 1.42 0 2.05-.53 2.03-1.49-.08-2.78-7.82-2.28-8.19-7.04-.21-2.59 1.88-4.01 5.88-4.01 4.76 0 6.95 1.35 6.42 4.26h-3.97c.29-1.3-.3-1.98-1.67-1.98-1.21 0-1.8.46-1.77 1.28.1 2.62 7.67 2.12 8.01 6.9.14 2.88-2.04 4.37-6.3 4.36-4.95 0-7.12-1.5-6.58-4.74ZM490 89.93h5.53l-.93 13.45h-3.45L490 89.93Zm.56 15.54h4.69l.05 4.42h-4.69l-.05-4.42Z"/>
		<path d="M23.13.83h24.95C72.6.83 80.06 8.4 74.44 26.48c-5.52 17.79-15.22 26.07-38.28 26.07h-8.67l-7.05 22.62H0L23.13.83ZM37.8 39.91c7.44 0 11.99-3.14 15.21-13.43 3.18-10.17.84-12.98-7.15-12.98h-6.25l-8.24 26.41h6.42ZM89.3.83h20.44l-23.09 74.3H66.21L89.3.83Zm9.22 64.88 45.11-51.72h-28.51L119.24.82h53.92l-2.96 9.38-45.41 51.68h29.48l-4.05 13.21H95.66l2.85-9.38Zm59.81 0 45.11-51.72h-28.51L179.05.82h53.92l-2.96 9.38-45.41 51.68h29.48l-4.05 13.21h-54.56l2.85-9.38Zm155.61-26.87C322.41 11.44 335.59.68 358.26.68s32.29 10.61 23.7 38.16c-8.51 27.47-21.53 38.08-44.31 38.08s-32.2-10.68-23.71-38.08Zm46.6-.04c6.02-19.46 4.09-25.41-4.7-25.41s-14.48 5.96-20.54 25.41c-6.06 19.42-4 25.26 4.83 25.26s14.39-5.88 20.41-25.26Zm31.93-37.11h21.27l-5.16 49.12 26.15-49.12h18.15l-5.16 49.16L472.6 1.69h17.88l-43.54 74.26h-18.65l4.37-47.57-25.36 47.57h-18.15l3.33-74.26Zm85.26 57.82h17.46l-5.06 16.44h-17.46l5.06-16.44Zm16.44-57.82h20.59l-19.48 50.05h-12.86l11.75-50.05Z"/>
		<path d="m224.59 29.49 55.76 25.05-76.76.81 21-25.86z"/>
		<path d="m266.19 48.18 1.23 6.5 12.93-.14-14.16-6.36zm-37.34 6.9 19.3-.2 5.12-12.5-15.37-6.91-9.05 19.61zm-1.17 2.54-7.53 16.31h20.2l6.76-16.52-19.43.21z"/>
		<path d="m301.35 0-17.78 46.46L276.71.4h-22.62l-15.13 32.78 15.27 6.86 7.13-17.42 4.26 22.53 15.76 7.08c1.08.49 1.68 1.66 1.44 2.82a2.532 2.532 0 0 1-2.44 2.01l-12.48.13 3.16 16.74h21.82L321.55 0h-20.2Z"/>
	</symbol>

	<symbol id="logo-slice" width="76.76" height="25.86" viewBox="0 0 76.76 25.86">
		<path d="m0 25.86 76.76-.81-55.76-25.05z"/>
	</symbol>

	<symbol id="phone" width="640" height="1280" viewBox="0 0 640 1280">
		<path d="M80 0C35.68 0 0 35.68 0 80v1120c0 44.32 35.68 80 80 80h480c44.32 0 80-35.68 80-80V80c0-44.32-35.68-80-80-80H80zm0 24h80v26c0 13.296 10.704 24 24 24h272c13.296 0 24-10.704 24-24V24h80c31.024 0 56 24.976 56 56v1120c0 31.024-24.976 56-56 56H80c-31.024 0-56-24.976-56-56V80c0-31.024 24.976-56 56-56z"/>
	</symbol>

	<symbol id="chart-1" width="1200" height="1200" viewBox="0 0 1200 1200">
		<path fill="none" stroke="var(--color-d1)" vector-effect="non-scaling-stroke" stroke-width="2" d="M150 0v1050m0 0h1050"/>
		<path fill="none" stroke="var(--color-d1)" vector-effect="non-scaling-stroke" stroke-dasharray="10 10" stroke-width="2" d="M150 50h1050M150 250h1050M150 450h1050M150 650h1050M150 850h1050"/>
		<text xml:space="preserve" x="120" y="1050" fill="none" font-family="inherit" font-size="32" letter-spacing="0" word-spacing="0"><tspan x="120" y="1050" fill="var(--color-b0)" stroke="none" font-family="inherit" font-weight="400" text-anchor="end">0</tspan></text>
		<text xml:space="preserve" x="120" y="850" fill="none" font-family="inherit" font-size="32" letter-spacing="0" word-spacing="0"><tspan x="120" y="850" fill="var(--color-b0)" stroke="none" font-family="inherit" font-weight="400" text-anchor="end">1000</tspan></text>
		<text xml:space="preserve" x="120" y="650" fill="none" font-family="inherit" font-size="32" letter-spacing="0" word-spacing="0"><tspan x="120" y="650" fill="var(--color-b0)" stroke="none" font-family="inherit" font-weight="400" text-anchor="end">2000</tspan></text>
		<text xml:space="preserve" x="120" y="450" fill="none" font-family="inherit" font-size="32" letter-spacing="0" word-spacing="0"><tspan x="120" y="450" fill="var(--color-b0)" stroke="none" font-family="inherit" font-weight="400" text-anchor="end">3000</tspan></text>
		<text xml:space="preserve" x="120" y="250" fill="none" font-family="inherit" font-size="32" letter-spacing="0" word-spacing="0"><tspan x="120" y="250" fill="var(--color-b0)" stroke="none" font-family="inherit" font-weight="400" text-anchor="end">4000</tspan></text>
		<text xml:space="preserve" x="120" y="50" fill="none" font-family="inherit" font-size="32" letter-spacing="0" word-spacing="0"><tspan x="120" y="50" fill="var(--color-b0)" stroke="none" font-family="inherit" font-weight="400" text-anchor="end">5000</tspan></text>
		<path fill="var(--color-r0)" d="M700 1010h400v40H700z"/>
		<path fill="var(--color-g1)" d="M250 1010h400v40H250z"/>
		<rect width="400" height="710.62" x="250" y="339.38" fill="var(--color-g1)" rx="40" ry="40"/>
		<rect width="400" height="892.88" x="700" y="157.12" fill="var(--color-r0)" rx="40" ry="40"/>
		<text xml:space="preserve" x="449.422" y="1130" fill="none" font-family="inherit" font-size="32" letter-spacing="0" word-spacing="0"><tspan x="449.422" y="1130" fill="var(--color-b0)" stroke="none" font-family="inherit" font-weight="400" text-anchor="middle">BIG CHAINS</tspan></text>
		<text xml:space="preserve" x="900" y="1130" fill="none" font-family="inherit" font-size="32" letter-spacing="0" word-spacing="0"><tspan x="900" y="1130" fill="var(--color-b0)" stroke="none" font-family="inherit" font-weight="400" text-anchor="middle">LOCAL SHOPS</tspan></text>
		<text xml:space="preserve" x="449.422" y="439.38" fill="none" font-family="inherit" font-size="56" font-weight="900" letter-spacing="0" word-spacing="0"><tspan x="449.422" y="439.38" fill="var(--color-b0)" stroke="none" text-anchor="middle">35,531</tspan></text>
		<text xml:space="preserve" x="900" y="253.12" fill="none" font-family="inherit" font-size="56" font-weight="900" letter-spacing="0" word-spacing="0"><tspan x="900" y="253.12" fill="var(--color-b0)" stroke="none" text-anchor="middle">44,644</tspan></text>
	</symbol>

	<symbol id="chart-2" width="1200" height="1200" viewBox="0 0 1200 1200">
		<path fill="none" stroke="var(--color-d1)" vector-effect="non-scaling-stroke" stroke-width="2" d="M150 0v1050m0 0h1050"/>
		<path fill="none" stroke="var(--color-d1)" vector-effect="non-scaling-stroke" stroke-dasharray="10 10" stroke-width="2" d="M150 50h1050M150 383.333h1050M150 550h1050M150 716.667h1050M150 883.333h1050 M150 216.667h1050"/>
		<text xml:space="preserve" x="120" y="1050" fill="none" font-family="inherit" font-size="32" letter-spacing="0" word-spacing="0"><tspan x="120" y="1050" fill="var(--color-b0)" stroke="none" font-family="inherit" font-weight="400" text-anchor="end">0</tspan></text>
		<text xml:space="preserve" x="120" y="883.333" fill="none" font-family="inherit" font-size="32" letter-spacing="0" word-spacing="0"><tspan x="120" y="883.333" fill="var(--color-b0)" stroke="none" font-family="inherit" font-weight="400" text-anchor="end">5</tspan></text>
		<text xml:space="preserve" x="120" y="716.667" fill="none" font-family="inherit" font-size="32" letter-spacing="0" word-spacing="0"><tspan x="120" y="716.667" fill="var(--color-b0)" stroke="none" font-family="inherit" font-weight="400" text-anchor="end">10</tspan></text>
		<text xml:space="preserve" x="120" y="550" fill="none" font-family="inherit" font-size="32" letter-spacing="0" word-spacing="0"><tspan x="120" y="550" fill="var(--color-b0)" stroke="none" font-family="inherit" font-weight="400" text-anchor="end">15</tspan></text>
		<text xml:space="preserve" x="120" y="383.333" fill="none" font-family="inherit" font-size="32" letter-spacing="0" word-spacing="0"><tspan x="120" y="383.333" fill="var(--color-b0)" stroke="none" font-family="inherit" font-weight="400" text-anchor="end">20</tspan></text>
		<text xml:space="preserve" x="120" y="216.667" fill="none" font-family="inherit" font-size="32" letter-spacing="0" word-spacing="0"><tspan x="120" y="216.667" fill="var(--color-b0)" stroke="none" font-family="inherit" font-weight="400" text-anchor="end">25</tspan></text>
		<text xml:space="preserve" x="120" y="50" fill="none" font-family="inherit" font-size="32" letter-spacing="0" word-spacing="0"><tspan x="120" y="50" fill="var(--color-b0)" stroke="none" font-family="inherit" font-weight="400" text-anchor="end">30</tspan></text>
		<path fill="var(--color-r0)" d="M700 1010h400v40H700z"/>
		<path fill="var(--color-g1)" d="M250 1010h400v40H250z"/>
		<rect width="400" height="900" x="250" y="150" fill="var(--color-g1)" rx="40" ry="40"/>
		<rect width="400" height="656.666" x="700" y="393.334" fill="var(--color-r0)" rx="40" ry="40"/>
		<text xml:space="preserve" x="449.422" y="1130" fill="none" font-family="inherit" font-size="32" letter-spacing="0" word-spacing="0"><tspan x="449.422" y="1130" fill="var(--color-b0)" stroke="none" font-family="inherit" font-weight="400" text-anchor="middle">BIG CHAINS</tspan></text>
		<text xml:space="preserve" x="900" y="1130" fill="none" font-family="inherit" font-size="32" letter-spacing="0" word-spacing="0"><tspan x="900" y="1130" fill="var(--color-b0)" stroke="none" font-family="inherit" font-weight="400" text-anchor="middle">LOCAL SHOPS</tspan></text>
		<text xml:space="preserve" x="449.422" y="250" fill="none" font-family="inherit" font-size="56" font-weight="900" letter-spacing="0" word-spacing="0"><tspan x="449.422" y="250" fill="var(--color-b0)" stroke="none" text-anchor="middle">$27 Billion</tspan></text>
		<text xml:space="preserve" x="900" y="489.334" fill="none" font-family="inherit" font-size="56" font-weight="900" letter-spacing="0" word-spacing="0"><tspan x="900" y="489.334" fill="var(--color-b0)" stroke="none" text-anchor="middle">$19.7 Billion</tspan></text>
		<text xml:space="preserve" x="449.422" y="930" fill="none" font-family="inherit" font-size="56" font-weight="400" letter-spacing="0" word-spacing="0"><tspan x="449.422" y="930" fill="var(--color-b0)" stroke="none" text-anchor="middle" font-stretch="75%">Average per shop</tspan><tspan x="449.422" y="998" fill="var(--color-b0)" stroke="none" text-anchor="middle" font-weight="900">$766,000</tspan></text>
		<text xml:space="preserve" x="900" y="930" fill="none" font-family="inherit" font-size="56" font-weight="400" letter-spacing="0" word-spacing="0"><tspan x="900" y="930" fill="var(--color-b0)" stroke="none" text-anchor="middle" font-stretch="75%">Average per shop</tspan><tspan x="900" y="998" fill="var(--color-b0)" stroke="none" text-anchor="middle" font-weight="900">$443,000</tspan></text>
	</symbol>

	<symbol id="mood-wrrr" width="24" height="24" viewBox="0 0 24 24">
		<path d="M12 0C5.373 0 0 5.373 0 12s5.373 12 12 12 12-5.372 12-12c0-6.627-5.373-12-12-12ZM4.667 9.334c.146 0 3.635.025 5.804 2.195A.666.666 0 0 1 10 12.667c-.008 0-.017-.005-.025-.005.013.111.025.222.025.338 0 1.29-.747 2.333-1.667 2.333S6.667 14.29 6.667 13c0-.752.26-1.415.655-1.842a9.281 9.284 0 0 0-2.656-.492.666.666 0 0 1 0-1.332zm14.666 0a.667.667 0 0 1 .001 1.333 9.26 9.26 0 0 0-2.656.49c.395.427.655 1.09.655 1.843 0 1.29-.746 2.333-1.667 2.333C14.746 15.333 14 14.29 14 13c0-.116.012-.227.023-.338-.007 0-.015.005-.023.005a.666.666 0 0 1-.471-1.138c2.17-2.17 5.658-2.195 5.803-2.195zM12 17c4.211 0 4.959 2.8 4.99 2.919a.333.333 0 0 1-.558.317C16.42 20.226 15.129 19 12 19c-3.13 0-4.42 1.225-4.433 1.238a.333.333 0 0 1-.557-.317C7.04 19.8 7.788 17 12 17z"/>
	</symbol>

	<symbol id="mood-strong" width="24" height="24" viewBox="0 0 24 24">
		<path d="M15.249 4.8c.393.415.476.933.31 1.223-.186.332-.414.498-.766.498-.145 0-.83-.021-1.202.207-.415.249-1.306.684-2.342.58-.684-.062-1.575-.746-1.99-.248-.207.248-.539 1.18-.56 2.487-.02.911.125 4.124-.29 6.175-.02.145.104.29.25.29.393-.02.849-.186 1.243-1.14 2.093-5.118 10.673-4.787 11.937.975.477 2.114 1.12 6.466-3.047 7.71-3.088.911-7.44.165-9.76-.021-1.452-.125-6.716-.353-7.172-3.296-.145-.85.063-2.32.332-4.269.083-.663.29-2.528.974-4.58.58-1.658 1.41-3.192 2.446-4.912.373-.621.829-1.637 2.03-2.88C9.323 1.858 11.374.656 12.555.117c.87-.394 1.368.29 1.596.829.187.456 1.264 1.906 1.762 2.59.145.208.248.664-.062.87a4.64 4.64 0 0 1-.601.395z"/>
	</symbol>

	<symbol id="mood-chart" width="24" height="24" viewBox="0 0 24 24">
		<path d="M21 3a1 1 0 0 1 0 2v9a3 3 0 0 1 -3 3h-5v2h2a1 1 0 0 1 0 2h-6a1 1 0 0 1 0 -2h2v-2h-5a3 3 0 0 1 -3 -3v-9a1 1 0 1 1 0 -2zm-12 4a1 1 0 0 0 -1 1v4a1 1 0 0 0 2 0v-4a1 1 0 0 0 -1 -1m6 2a1 1 0 0 0 -1 1v2a1 1 0 0 0 2 0v-2a1 1 0 0 0 -1 -1m-3 1a1 1 0 0 0 -1 1v1a1 1 0 0 0 2 0v-1a1 1 0 0 0 -1 -1"/>
	</symbol>

	<symbol id="background-content" width="240" height="160" viewBox="0 0 240 160">
		<path fill="#f4f4f4" d="M0 0c-.003.652.016 1.232.016 1.232 1.66.165 2.96 2.25 3.785 4.75 1.19 3.603 1.39 8.068.25 8.87-.864 1.06-2.875 2.194.241 2.995.97-1.018 1.74-2.17 2.311-3.454.66-2.085.577-5.399-.419-8.412C5.364 3.498 3.924 1.22 1.77 0Zm7.254 0c.3.674.836 1.076 1.604 1.205A24.22 24.22 0 0 0 13.24 0Zm22.34 0c.076.172.154.344.236.516a46.068 46.068 0 0 0 4.232 5.761 13.46 13.46 0 0 0 1.922 1.463.69.69 0 0 0 .625-.038c.379-.614.307-1.186-.217-1.718A15.434 15.434 0 0 1 31.862 0Zm11.271 0 .076.133c2.087 2.566 4.816 3.628 8.182 3.185 2.432-.72 4.248-1.825 5.447-3.318h-2.64c-1.37 1.134-3.191 1.643-5.462 1.524C45.257 1.22 44.254.712 43.458 0Zm21.242 0c-.187 1.734.17 3.53 1.071 5.388a10.026 10.026 0 0 0 2.368 3.091c2.762 1.375 4.75.725 5.963-1.947l.373.73c.258 1.182.69 2.31 1.293 3.382.23.395.541.702.937.922.892.164 1.78.16 2.667-.014.859-.72 1.804-1.33 2.834-1.83 1.124-.579 1.347-1.37.671-2.375a38.266 38.266 0 0 0-2.897-2.833 4.338 4.338 0 0 1-.81-1.305.773.773 0 0 1 .414-.703C78.854 2.16 79.963 1.324 80.316 0h-2.038a2.97 2.97 0 0 1-.664.51c-1.794.524-3.58 1.085-5.356 1.685l-.649.718-1.758 3.068-.03.052a3.846 3.846 0 0 1-.948.887c-1.436.54-2.52.227-3.25-.939a4.32 4.32 0 0 1-.235-.427l-1.13-2.34c-.176-1.19-.21-2.261-.103-3.214Zm26.199 0a54217.184 54217.184 0 0 1 .543 8.476c.008 3.753-1.735 6.445-5.232 8.075a40.792 40.792 0 0 1-8.431 2.476c-3.076.435-5.898-.194-8.47-1.887-1.953-1.628-3.917-3.263-5.888-4.907a16.578 16.578 0 0 0-5.515-2.22c-6.704-.336-11.372 2.435-14.001 8.315a166.181 166.181 0 0 0-2.471 6.325c-.951 2.195-2.58 3.725-4.887 4.59-3.005.969-5.949.799-8.829-.51l-3.965-2.466c-4.338-2.171-8.884-2.745-13.635-1.72-2.042.517-5.052.455-7.51.455v1.93c2.134 0 5.287.023 7.187-.558 3.778-.965 7.505-.793 11.184.516a107.063 107.063 0 0 1 5.923 3.4c5.89 2.526 10.963 1.536 15.218-2.97a80.955 80.955 0 0 0 3.563-8.35c.972-2.163 2.42-3.984 4.345-5.461 4.067-2.38 8.147-2.38 12.24 0a139.77 139.77 0 0 0 5.901 5.056c2.032 1.36 4.29 2.125 6.776 2.293 4.423.047 8.582-.912 12.479-2.876 3.915-1.944 5.94-5.054 6.073-9.331a77.144 77.144 0 0 0-.696-7.636C90.158.662 90.125.324 90.11 0Zm23.99 0 .921.276c2.49.864 4.665 2.21 6.525 4.04a61.754 61.754 0 0 1 1.253 1.665 62.628 62.628 0 0 1 2.834 4.255c1.52 2.105 3.503 3.665 5.949 4.678a26.525 26.525 0 0 0 8.336 1.218 406.203 406.203 0 0 1 12.348-1.588 9.623 9.623 0 0 1 2.859.426c3.786 1.456 6.17 4.095 7.151 7.916a38.75 38.75 0 0 0 1.445 6.234c1.222 3.642 3.655 6.228 7.296 7.756l7.028 1.524 6.92 2.134c5.744.975 10.704-.435 14.88-4.228a5.308 5.308 0 0 0 1.134-1.5c-.273-.672-.763-.918-1.471-.738l-2.21 1.792c-3.689 2.734-7.848 3.692-12.478 2.876a119.458 119.458 0 0 1-6.44-2.012 81.11 81.11 0 0 0-4.781-.91c-3.186-.665-5.598-2.349-7.234-5.05a23.926 23.926 0 0 1-2.215-7.994 11.772 11.772 0 0 0-2.477-5.418c-3.102-3.628-7.067-5.115-11.894-4.462-2.475.428-4.953.832-7.435 1.21-3.492.542-6.916.25-10.27-.872-2.096-1-3.806-2.426-5.132-4.276a44.932 44.932 0 0 0-3.39-5.061 17.126 17.126 0 0 0-1.764-1.817A16.48 16.48 0 0 0 117.058 0Zm19.401 0a27.031 27.031 0 0 0-2.36 1.691 1.582 1.582 0 0 0-.557.863c-.156.227-.162.478-.018.754l.841.7c.119-.017.193-.072.223-.164a12.468 12.468 0 0 0 1.482-1.07 16.518 16.518 0 0 1 1.885-1.922c.302-.093.613-.138.93-.133.282.514.483 1.054.602 1.62a3.394 3.394 0 0 1-.689 2.15c-.067.455-.031.905.11 1.348.063.05.126.098.19.144 1.591 1.161 3.233 1.183 4.926.068l.1-.068c2.37-1.605 3.81-3.599 4.32-5.981H141.8c-.46 1.858-1.762 3.4-3.907 4.628a2.534 2.534 0 0 1-2.012.35c.784-1.672.747-3.332-.108-4.978zm19.787 0a7.358 7.358 0 0 1-.86 3.92c-.398.67-.764 1.356-1.097 2.061l-.127.272c.067 1.125.643 1.467 1.73 1.023a18.434 18.434 0 0 1 1.92-3.43c3.764-.272 6.904-1.553 9.42-3.846h-3.497a16.38 16.38 0 0 1-3.053 1.486l-.402-.126c.263-.452.522-.905.778-1.36h-2.438a26.92 26.92 0 0 0-.365.581 14.845 14.845 0 0 1-.148-.581Zm52.81 0c-.962 1.819-1.661 3.757-2.156 5.72.012.09.026.176.042.261.461 2.412 2.612 3.194 4.91 3.842 2.026-.185.99 2.093 1.968 3.182 1.09 2.176 1.145 2.586 3.393 3.275 2.525.45 3.34.204 5.577 1.286-.843-1.916-.28-2.157-1.363-3.956 7.506 2.377 13.745 4.853 20.452 8.722.238-4.965-.224-9.01-3.843-12.559-1.633-1.631-3.604-2.88-5.756-3.792-2.5-1.06-5.243-1.668-7.979-1.897.795-.96.63-2.107 1.754-2.978-.01-.064-3.377-1.463-7.642.239-1.555.696-2.822 1.962-3.58 3.433-2.195-1.537-1.697-2.047-3.054-4.778zm29.344 0c1.997.747 4.118 1.158 6.362 1.232V0ZM205.42 1.1c.934 1.577 1.415 3.471 2.607 4.881.231.274.49.529.782.76.255 2.06-3.012.591-3.682-.312a2.312 2.312 0 0 1-.471-.448c-1.066-1.365.143-3.426.764-4.882zm-19.295.333c-.723.01-1.431.05-2.124.121-4.058.417-7.604 1.892-10.638 4.427a21.574 21.574 0 0 0-1.727 1.614c-3.484 4.859-3.905 10.003-1.265 15.434 3.967 7.215 10.13 10.022 18.491 8.422 3.31-.624 5.98-2.218 8.01-4.784 5.073-6.505 5.065-13.08-.023-19.721a18.592 18.592 0 0 0-.94-.965c-2.693-2.568-5.954-4.084-9.784-4.548zm32.718.643s.801 3.158-4.005 3.772c.051.046.104.09.157.133.902.72 2.1 1.014 1.416 2.826-1.607.498-1.614 1.376-2.697 2.665.7.74.644 2.44.582 2.96-2.085-.745-2.817-.593-3.8-2.786-.712-1.88.034-3.889 1.008-5.665.205-.373.42-.737.633-1.086 2.003-2.36 3.82-2.497 6.706-2.819zm-149.389.367c-1.154.088-1.327.525-.522 1.312.324.048.62.155.889.321.298-.1.411-.307.342-.623a1.774 1.774 0 0 0-.709-1.01Zm32.66.248a3.694 3.694 0 0 0-.473.02c-1.048.116-1.705.712-1.97 1.786a46.518 46.518 0 0 1-1.748 9.442c-.187 2.792.86 5.062 3.138 6.807 1.971 1.394 4.178 2.161 6.62 2.303-2.815 2.85-3.313 6.067-1.496 9.652a16.434 16.434 0 0 0 2.476 3.461 69.72 69.72 0 0 0 4.278 3.425 3.32 3.32 0 0 0 1.406-.086c2.434-2.142 3.63-4.825 3.587-8.05a23.572 23.572 0 0 0-.909-3.482 15.805 15.805 0 0 0 2.962-.648 15.114 15.114 0 0 0 4.19-2.126c.68-.612.856-1.35.527-2.215a53.872 53.872 0 0 0-3.63-3.164 11.994 11.994 0 0 0-5.61-1.461l-.252-.21c.178-.902.366-1.817.563-2.745-.084-1.39-.553-2.666-1.408-3.828a21.909 21.909 0 0 0-6.32-5.59 23.68 23.68 0 0 0-.181-.107 2954.212 2954.212 0 0 1-5.75-3.184zm83.844.56a18.523 18.523 0 0 1 7.118 2.647l.104.083c3.66 2.933 5.474 6.68 5.44 11.244-1.91 10.763-8.418 14.701-19.525 11.816a18.475 18.475 0 0 1-4.578-3.256c-4.72-5.341-5.17-10.934-1.354-16.78a17.167 17.167 0 0 1 3.405-3.024c2.19-1.463 4.68-2.338 7.474-2.626a20.42 20.42 0 0 1 1.916-.105zm-112.011.42a17.406 17.406 0 0 0 2.601 2.099 9.874 9.874 0 0 1 1.677 2.305.705.705 0 0 1-.125.385c-.873.504-1.749.984-2.63 1.441l-.397-.05a43.319 43.319 0 0 1-1.906-4.174c.076-.559.161-1.116.258-1.672a.606.606 0 0 1 .522-.333Zm-51.53 1.216c-.704-.004-1.382.03-2.033.103-1.4.155-2.679.486-3.838.991-2.62 1.143-4.628 3.18-6.023 6.112a4.829 4.829 0 0 0-.095 2.716c.306.673.833 1.067 1.586 1.182 2.927.33 5.84.752 8.734 1.269 2.082.386 4.156.81 6.223 1.273.526 1.231 1.435 2.129 2.728 2.692a4.1 4.1 0 0 0 1.561-.096 5.42 5.42 0 0 0 1.692-3.34 10.77 10.77 0 0 0-.567-5.085c-1.159-2.45-2.817-4.53-4.977-6.243a12.665 12.665 0 0 0-4.992-1.574Zm79.891.2a1708.178 1708.178 0 0 0 3.766 1.951c2.832 1.521 5.168 3.56 7.007 6.119.525.823.754 1.713.686 2.667a19.886 19.886 0 0 1-1.847 4.33c-.061.198-.071.4-.03.603a.505.505 0 0 1-.48-.12 10.072 10.072 0 0 0-1.87-2.746c-1.222-.665-2.083-1.616-2.584-2.852-.393-.937-1.072-1.246-2.036-.928a10.81 10.81 0 0 0-.336 1.676 2.403 2.403 0 0 0-1.43-.213c0 .305.05.603.151.894.825.824 1.834 1.338 3.028 1.545 1.411.862 2.394 2.03 2.951 3.507a14.096 14.096 0 0 1-5.1-.966c-2.938-1.53-4.304-3.88-4.1-7.05a49.438 49.438 0 0 0 1.545-8.074.703.703 0 0 1 .57-.341.989.989 0 0 1 .109-.001zm86.042.575c-.6.01-1.146.116-1.638.32a3.989 3.989 0 0 0-1.61 1.235 13.51 13.51 0 0 0-.261 6.49c.589.533 1.109.501 1.561-.096a52.69 52.69 0 0 1 .118-4.373c.078-.54.245-1.052.503-1.537 1.938.032 3.617.732 5.035 2.1.688.892.789 1.813.301 2.766a22.315 22.315 0 0 0-3.818 2.267 3.58 3.58 0 0 0 .006 1.054 10.704 10.704 0 0 0 5.014-2.04c1.095-.994 1.391-2.191.887-3.593-1.257-2.008-2.975-3.432-5.157-4.274a12.044 12.044 0 0 0-.942-.319zm29.603.268c.25.014.503.031.755.051 5.466.434 11.102 2.295 14.312 6.64 1.575 2.132 2.4 4.733 2.628 7.373-6.174-3.51-12.684-6.54-19.56-8.69 1.123-1.091 1.995-.312 2.175-2.458.22-1.36-.192-2.602-.29-2.865a.85.85 0 0 0-.02-.05zm-195.067.885c1.045.175 2.064.488 3.058.941 3.611 2.633 5.383 6.112 5.315 10.438-.342 1.198-1.03 1.416-2.066.654a5.487 5.487 0 0 1-.944-1.975 6.04 6.04 0 0 1-3.508-.687c.063-.151.156-.283.282-.394a15.215 15.215 0 0 0 3.206-2.08c.161-1.214-.367-1.609-1.586-1.181a14.36 14.36 0 0 1-1.633 1.154c-1.997.902-2.398.475-1.202-1.281l1.55-.246c.543-.376.79-.869.743-1.476-1.481-.742-2.827-.56-4.035.55a5.976 5.976 0 0 0-.503 3.493c-.42.462-.956.62-1.61.476a40.63 40.63 0 0 0-4.12-.5 26.813 26.813 0 0 1-3.357-.771.953.953 0 0 1-.15-.894c.276-.769.637-1.494 1.079-2.174 2.111-2.524 4.794-3.872 8.05-4.044.466-.025.942-.026 1.43-.003zm140.191.704c-.468.06-.933.138-1.393.236-.513 1.038-.196 1.722.95 2.05.781-.345 1.127-.918 1.038-1.72a1.09 1.09 0 0 0-.595-.566zm15.552 1.028a3.671 3.671 0 0 0-2.38.796c-2.38 1.523-3.513 3.675-3.4 6.457.243 1.238.473 2.48.692 3.722.613 1.631 1.803 2.436 3.569 2.414a34.103 34.103 0 0 0 3.11-2.298l1.2-.677a.68.68 0 0 0 .276-.468c-.318-.62-.811-.89-1.478-.813l-.912.358-2.354 1.951a.96.96 0 0 1-.865-.022c-1.088-1.687-1.55-3.515-1.384-5.485.648-1.588 1.664-2.93 3.049-4.027.252-.116.512-.132.78-.048a30.364 30.364 0 0 1 2.188 2.801c.328.393.738.618 1.232.677.726-.126.906-.489.54-1.087a24.636 24.636 0 0 0-2.05-3.035 4.085 4.085 0 0 0-1.43-1.192 4.352 4.352 0 0 0-.383-.024zm10.516 1.131a1.388 1.388 0 0 0-.135 0 1.12 1.12 0 0 0-.778.358c-.39.54-.71 1.111-.96 1.715.747.954 1.423.913 2.03-.125.54-.44.678-1 .413-1.682a.627.627 0 0 0-.57-.266zm-169.29.439c-.708-.012-1.176.334-1.405 1.036-.025.48-.065.96-.12 1.438.266 1.13.886 1.367 1.863.713.204-.822.32-1.657.347-2.505a.883.883 0 0 0-.367-.655 2.48 2.48 0 0 0-.318-.027zm85.7.19c-1.4.065-1.842.745-1.327 2.04.8.599 1.472.507 2.018-.276.16-.753-.07-1.341-.692-1.764zm74.595 2.635a3.501 3.501 0 0 0-2 .5c-.101.715.248 1.145 1.046 1.29.896.179 1.338-.175 1.326-1.06a2.473 2.473 0 0 0-.372-.73zm-70.204.257c-.316-.01-.542.105-.678.342-.463.948-.132 1.48.992 1.596.406.037.654-.13.743-.498a1.808 1.808 0 0 0-.084-1.048 1.131 1.131 0 0 0-.414-.276 1.002 1.002 0 0 0-.56-.116zm67.869 2.12c-.389-.006-.657.169-.805.526.023.506.141 1 .355 1.484.863.12 1.69-.006 2.48-.379a.602.602 0 0 0 .024-.679 10.54 10.54 0 0 1-1.88-.938 1.436 1.436 0 0 0-.174-.014zm11.922 1.7c-.943-.017-1.353.41-1.23 1.28 1.41.568 2.84 1.107 4.289 1.618.201.105.37.245.505.42-.927 3.092-3.016 5.078-6.267 5.957-1.094.194-2.19.21-3.291.052a1.253 1.253 0 0 1-.782-.93 3.646 3.646 0 0 1-.12-1.499 8.634 8.634 0 0 1 1.343-2.793c.252-1.094-.169-1.444-1.262-1.05-2.012 2.02-2.427 4.329-1.245 6.926 1.13 1.057 2.467 1.427 4.012 1.108 4.14-.373 7.173-2.316 9.102-5.83 1.093-1.927.588-3.326-1.516-4.197a154.04 154.04 0 0 0-3.538-1.062zm-.405 3.188c-1.034.001-1.364.623-.991 1.866.452.77 1.037.885 1.754.344.358-.69.38-1.394.065-2.112a4.065 4.065 0 0 0-.828-.098zm-72.758.262c1.255.126 2.392.47 3.41 1.03a8.78 8.78 0 0 1 2.49 2.07 2.235 2.235 0 0 1-.426.553 8.238 8.238 0 0 1-2.063 1.189c-1.452.567-3.026.661-4.723.282a5.598 5.598 0 0 1-1.076-1.665l.613-.188a15.13 15.13 0 0 0 3.64.378c.002-.327.081-.634.239-.918a1.676 1.676 0 0 0-.69-.785 48.39 48.39 0 0 0-4.308-.864.78.78 0 0 1 .426-.554 6.2 6.2 0 0 1 2.468-.528zm-59.602.357c-5.872.396-9.32 3.368-10.344 8.917.23 5.518 3.186 8.773 8.87 9.767 4.985-.024 8.336-2.262 10.05-6.716.673-4.653-1.059-8.285-5.194-10.896a8.959 8.959 0 0 0-3.382-1.072Zm85.642.403c-3.05.052-5.712 1.11-7.99 3.172-1.529 1.87-2.272 3.998-2.23 6.386a4.588 4.588 0 0 0 1.49 1.94c1.405.301 2.792.642 4.163 1.024a219.546 219.546 0 0 1-3.023 7.262c.14.466.43.825.872 1.076a29.023 29.023 0 0 0 7.413 2.404 6.984 6.984 0 0 0 2.354.005c.383-.315.64-.707.768-1.176.415-2.027.801-4.059 1.156-6.094.104-.006.152-.059.144-.159-.081-.669.209-.963.87-.881.263.334.549.642.86.925l.155-.01c1.543 1.115 3.178 1.29 4.908.527a6.657 6.657 0 0 0 2.328-3.23 7.222 7.222 0 0 0-.043-1.503 7.503 7.503 0 0 0-.493-2.228c-2.412-5.2-6.536-8.333-12.372-9.4a14.555 14.555 0 0 0-1.33-.04zm42.621.283c-.418.926-.445 1.881-.082 2.865a3.297 3.297 0 0 0 1.519-.62c.592-.733.487-1.38-.313-1.938a5.172 5.172 0 0 0-1.124-.307zm22.523 1.022c-.748.12-1.184.548-1.308 1.285.43.837 1.044 1 1.844.489.331-.735.152-1.326-.536-1.774zm-150.317.22c.692.328 1.398.66 2.12 1 2.694 1.657 4.164 4 4.413 7.03-.962 4.819-4 7.038-9.114 6.658-4.525-1.164-6.557-3.975-6.094-8.432 1.033-3.7 3.376-5.76 7.03-6.177.52-.06 1.07-.086 1.645-.079zm84.455.372c5.365.262 9.4 2.623 12.106 7.083.169.45.361.89.577 1.32a4.861 4.861 0 0 1-.131 2.266l-.451-.725c-.718-1.18-1.774-1.942-3.166-2.29-2.028.138-3.441 1.103-4.24 2.896a16.574 16.574 0 0 0-1 4.127 65.665 65.665 0 0 1-.85 5.02 24.94 24.94 0 0 1-7.298-1.959 1.74 1.74 0 0 1 .06-1.208 99.594 99.594 0 0 0 3.059-6.813c.325-2.653-.871-4.186-3.588-4.597a8.096 8.096 0 0 0-1.58-.128c-.253-.152-.376-.37-.367-.655 1.43-2.634 3.72-4.08 6.868-4.337zm-31.626.893c.346 2.578.685 5.167 1.02 7.766.635.69 1.264.701 1.885.034a67.705 67.705 0 0 0-.536-3.73l-.043-1.503a.556.556 0 0 1 .222-.165 8.325 8.325 0 0 1 2.915 4.036c.286 2.538-.34 4.834-1.875 6.89a.758.758 0 0 1-.775.124 26.282 26.282 0 0 1-4.868-4.895c-1.121-1.661-1.423-3.45-.904-5.364.309-1.674 1.295-2.739 2.96-3.193zm-18.88.306a5.86 5.86 0 0 0-1.402.143 5.668 5.668 0 0 0-1.08 1.195c-.073.23.017.375.27.435a.69.69 0 0 1 .331.205c.785.028 1.568.004 2.348-.069 1.315-.618 1.317-1.245.005-1.882a5.994 5.994 0 0 0-.473-.027zm145.451.507c-1.505.05-2.996.303-4.392.83-2.46 1.14-4.827 3.39-4.499 6.226.271 3.088 2.504 5.503 4.596 7.673 1.62 1.845 2.477 3.427 4.09 5.262 1.037 1.416.998 3.205 1.03 4.86-.88 3.1-1.437 6.545.187 9.685.686.937 1.476 1.839 2.148 2.806v-2.83a9.29 9.29 0 0 1-.742-.98c-1.787-1.867-.324-3.974-.231-5.971.27-2.21.916-4.509-.029-6.664-.806-1.98-1.446-3.455-2.911-4.999-2.298-1.922-4.346-4.162-5.653-6.83-1.38-2.12-.335-5.178 2.092-6.092 2.307-1.168 4.944-1.258 7.474-.876v-1.93a19.031 19.031 0 0 0-3.16-.17zm-178.246.561a2.087 2.087 0 0 0-.774.123l-.936 1.036c.047.745.432 1.298 1.154 1.661 1.204.027 1.657-.528 1.356-1.665a2.433 2.433 0 0 0-.8-1.155zM54.44 28.36c-1.54.306-1.721.97-.545 1.99.53.475 1.055.493 1.574.055.232-.967-.112-1.648-1.029-2.045zm161.8.126a4.592 4.592 0 0 0-2.455.678l-2.017 2.233a62.088 62.088 0 0 0-4.743 3.453l-12.582 11.314a1486.757 1486.757 0 0 0-19.702 16.418l-2.077 1.483a37.443 37.443 0 0 0-1.813 1.843c.02.795.361 1.451 1.022 1.97.725.34 1.478.595 2.258.764a180.86 180.86 0 0 0 8.758 1.568c4.781.39 9.566.697 14.355.923a399.88 399.88 0 0 0 33.32-1.298c1.64-.4 2.632-1.39 2.977-2.969a10.47 10.47 0 0 0-.205-2.546 183.37 183.37 0 0 1-2.252-10.4c-2.393-7.717-5.856-14.981-10.39-21.793-1.094-1.68-2.578-2.893-4.453-3.64zm-79.29 1.419c.947.136 1.564.65 1.852 1.542.092.572-.15.813-.727.722a13.743 13.743 0 0 0-2.234-.464c-.579-.166-.791-.529-.637-1.09.48-.455 1.062-.691 1.747-.71zm78.625.337c.656-.012 1.4.374 2.235 1.16 4.791 6.55 8.399 13.654 10.823 21.313a199.132 199.132 0 0 1 2.835 12.774c-.975-.259-1.962-.5-2.96-.722a4.4 4.4 0 0 0-1.748.71l-.469.029c.004-.096.002-.19-.006-.282a1.821 1.821 0 0 0-.177-.638c-.02-.04-.035-.08-.057-.118a65.05 65.05 0 0 1-1.224-8.356 18.454 18.454 0 0 0-1.985-5.147 9.398 9.398 0 0 1-2.5-3.761c-.72-2.456-1.39-4.924-2.01-7.404-1.03-2.535-2.666-4.642-4.905-6.322a1.744 1.744 0 0 1 .06-1.209c.548-1.335 1.245-2.01 2.088-2.026zm-128.57 1.152c-5.456-.148-10.396 4.856-11.537 8.929-.832 4.087 1.309 7.289 5.045 9.368-1.653 3.685-1.517 10.469 7.901 11.45 5.694.727 10.98-.714 11.73-6.44.127-1.763.609-3.414 2.047-3.765 4.856-2.92 4.031-6.227 3.146-9.723-.942-2.439-1.004-4.601-6.282-5.99-2.694-.488-4.152 1.358-6.313-.95-1.408-1.986-2.291-2.385-4.64-2.78a8.596 8.596 0 0 0-1.098-.1zm-27.037 1.293a3.1 3.1 0 0 0-.913.357c-.71.66-.707 1.337.008 2.032 1.34.067 1.865-.542 1.578-1.828-.078-.344-.302-.532-.673-.561zm90.39.006c1.003.23 1.728.788 2.175 1.672.17.64.325 1.282.47 1.929-.854.139-1.603-.066-2.247-.614a3.853 3.853 0 0 0-2.15-1.374c.232-.865.817-1.403 1.752-1.613zm-95.543.311a8.874 8.874 0 0 0-1.862.265 1.91 1.91 0 0 0 .139.745c.593.652 1.313.834 2.163.544.814-.755.667-1.273-.44-1.554zm32.152.073c1.228-.036 2.375.282 3.24 1.09 1.532 1.299 2.48 3.854 4.877 3.003 6.794-.996 6.54-.276 8.573 4.576 1.06 3.096 1.41 5.554-1.858 6.805-3.602 1.327-3.623 4.396-3.692 7.56-1.992 4.2-9.185 4.173-13.151 2.333-6.776-3.995-2.31-6.443-3.16-8.552.047-3.016-9.282-5.261-2.006-12.902 1.376-2.043 4.474-3.834 7.177-3.913zM12.46 33.2c-5.74.288-8.255 3.153-7.544 8.595 1.835 4.183 5.014 5.668 9.54 4.456 3.664-1.606 5.04-4.325 4.127-8.158-1.049-2.807-3.089-4.438-6.123-4.893zm199.35.676a14.684 14.684 0 0 0 2.146 2.277 23.88 23.88 0 0 1 1.935 2.59c.855 2.95 1.67 5.911 2.444 8.884a19.909 19.909 0 0 0 1.503 3.068 9.913 9.913 0 0 1 1.899 2.142 48.04 48.04 0 0 1 1.855 9.37 16.828 16.828 0 0 1 1.048 5.205 1.68 1.68 0 0 1-.492.708 90.122 90.122 0 0 1-10.294.785c-3.757.101-7.513.233-11.267.392a315.316 315.316 0 0 1-18.751-.953 391.305 391.305 0 0 1-10.505-1.838.447.447 0 0 1 .12-.459c7.68-6.283 15.33-12.6 22.95-18.952l11.693-10.657a18.762 18.762 0 0 1 3.716-2.562zm-209.99.261c-1.46.361-1.566.995-.317 1.902 1.27-.036 1.514-.578.732-1.626a1.536 1.536 0 0 1-.415-.276Zm85.625.655a4.41 4.41 0 0 0-.382.018c-2.86.011-5.04 1.208-6.543 3.589a189.056 189.056 0 0 1-1.557 3.472c-.425 1.687.106 2.988 1.592 3.903a35.49 35.49 0 0 0 3.914-.273l1.39.07a.724.724 0 0 0 .5-.244c.09-.685-.166-1.172-.767-1.46a567.35 567.35 0 0 0-.967-.184l-3.084.383a.926.926 0 0 1-.709-.476c.06-1.984.724-3.753 1.992-5.31a10.407 10.407 0 0 1 4.855-1.747c.277.036.503.16.679.373.143 1.159.216 2.324.218 3.495.049.5.262.906.64 1.216a1.79 1.79 0 0 0 1.074-.622c.103-1.194.113-2.4.031-3.617a3.846 3.846 0 0 0-.51-1.751 3.67 3.67 0 0 0-2.366-.835Zm-74.683.196c1.869.51 3.188 1.633 3.96 3.37.775 3.054-.338 5.155-3.337 6.303-3.634.64-5.943-.749-6.927-4.166.082-3.408 1.7-5.24 4.857-5.494.45-.036.933-.04 1.447-.013zm-1.32 1.136c-3.39.466-4.378 2.183-2.96 5.15 2.136 1.742 4.002 1.526 5.598-.645.822-1.64.43-2.945-1.18-3.918l-1.459-.587zm113.863.68c-.406.016-.741.234-1.005.652-.1.29-.053.54.138.745.08.827.518 1.076 1.316.747.778-.309 1.022-.85.732-1.626a2.328 2.328 0 0 0-.583-.416 1.604 1.604 0 0 0-.598-.102zm-54.801.05c-1.832.05-2.141.747-.93 2.09.373.042.742.095 1.111.157.57-.239.72-.649.45-1.232a2.628 2.628 0 0 0-.631-1.015zm26.489 1.962c-.232-.008-.47 0-.712.027-1.737 1.455-2.82 2.285-3.711 4.348.185.756.638 1.005 1.358.746.82-1.23 1.46-1.497 2.377-2.658a4.975 4.975 0 0 1 1.302-1.015c1.6 1.051 2.829 1.593 3.227 3.484.063 1.11-.382 1.932-1.335 2.469a23.053 23.053 0 0 0-4.488-.128c-.243.267-.442.56-.599.883 1.7.77 3.624.733 5.493.596 1.485-.25 1.865-.872 2.248-2.308.605-2.5-1.676-6.322-5.16-6.444zm113.511.259c-1.673.112-2.233.95-1.68 2.513.314.152.628.158.943.017 1.055-.654 1.301-1.498.737-2.53zm-124.207.16c-.494.544-.45 1.087.132 1.631.646.623 1.218.562 1.716-.183a2.42 2.42 0 0 0 .108-.807 3.484 3.484 0 0 0-1.956-.64zm-1.84 1.235a.897.897 0 0 0-.49.169c-.271.434-.456.91-.555 1.425.65.557 1.413.89 2.287.997a.625.625 0 0 0 .41-.554 9.86 9.86 0 0 1-1.031-1.778c-.206-.175-.413-.262-.621-.259Zm13.845 2.036a1.243 1.243 0 0 0-.334.035 8.965 8.965 0 0 0-1.785.923c.075 1.192.664 1.515 1.765.97.704-.08 1.14-.475 1.31-1.184a.596.596 0 0 0-.323-.524 1.33 1.33 0 0 0-.113-.071 1.13 1.13 0 0 0-.52-.15zm-67.394.008c-.474.004-.94.059-1.4.161a6.197 6.197 0 0 0-.67 2.375c-.043 4.78 1.404 9.108 4.343 12.982 3.907 4.28 8.768 5.862 14.585 4.748 1.192.249 2.006.926 2.44 2.033a70.48 70.48 0 0 1 1.527 3.368c1.17.174 1.654-.307 1.452-1.444a72.7 72.7 0 0 1-2.754-5.928c.927-2.228 1.029-4.517.309-6.87-.795-3.036-2.533-5.463-5.218-7.28a26.376 26.376 0 0 0-7.785-3.135 116.909 116.909 0 0 0-6.83-1.01zm133.665 1.045c-3.18.055-5.668 1.313-7.463 3.772-1.878 4.195-.939 7.726 2.817 10.59 2.308 1.276 4.734 1.528 7.279.757 3.547-1.036 5.427-3.335 5.641-6.897-.035-3.773-1.89-6.344-5.565-7.712a39.886 39.886 0 0 1-2.71-.51zm43.195.503c-4.545.428-6.263 2.793-5.155 7.092 1.685 3.105 4.248 4.077 7.69 2.913 2.655-1.6 3.39-3.83 2.206-6.684-.994-1.907-2.574-3.014-4.74-3.321zm-176.54.465c4.678.118 9.015 1.357 13.01 3.716 4.105 2.927 5.67 6.77 4.697 11.53a.746.746 0 0 1-.727-.257 14.35 14.35 0 0 1-2.26-2.722 32.552 32.552 0 0 0-1.769-6.365 3.338 3.338 0 0 0-1.153-.681.53.53 0 0 0-.433.478c-.068.456-.031.905.11 1.348a8.08 8.08 0 0 1 .775 2.813 1.43 1.43 0 0 1-.798-.177 125.376 125.376 0 0 0-5.564-4.776 5.02 5.02 0 0 0-2.553-.52c-.001.374.105.719.319 1.034a214.088 214.088 0 0 1 7.33 6.248 8.502 8.502 0 0 1-2.798-.656 1.764 1.764 0 0 0-.379.174 1.585 1.585 0 0 0-.925.208c.12.366.25.71.397 1.03.59.358 1.238.594 1.94.708 2.957-.285 5.238.754 6.843 3.117-2.43.484-4.843.407-7.237-.232-2.928-1.416-5.264-3.455-7.007-6.118-1.396-2.932-2.115-6-2.155-9.202.02-.277.133-.51.336-.698zm87.24.285c-4.503.048-11.977 4.08-9.828 7.625 2.33-2.65 4.578-5.787 8.725-5.8 5.637-.77 10.804 2.069 15.4 4.803 4.644 2.35 11.28.936 14.543 5.536 2.38 4.946 3.158 12.113 10.64 11.788 6.28.335 6.399 7.614 10.938 10.317 6.19 2.591 13.292 1.547 19.77.547 9.163-1.5 18.802-4.406 27.985-1.623 2.28 1.105 4.147 2.883 5.538 4.978h2.297a12.74 12.74 0 0 0-.35-.473c-2.499-3.734-6.251-7.133-11.14-7.238-13.606-1.044-26.639 5.567-40.264 3.826-6.412-1.345-6.382-10.085-12.817-11.432-5.99-.337-9.698-4.33-10.046-9.935-2.255-6.284-10.327-5.524-15.68-7.382-4.606-2.55-9.183-5.906-14.853-5.492a6.423 6.423 0 0 0-.857-.045zm45.473.597c1.197-.074 2.419.176 3.666.749 3.508 2.229 4.29 5.116 2.348 8.662-1.798 2.031-4.11 2.877-6.936 2.535a1.842 1.842 0 0 0-.132-.117 1.294 1.294 0 0 0-.705-.27 1.743 1.743 0 0 0-.136-.005c-1.896-.673-3.124-1.952-3.684-3.838-.798-2.63-.111-4.805 2.063-6.525 1.147-.72 2.319-1.117 3.516-1.19zm17.594.267a2.009 2.009 0 0 0-1.447.541c-.114 1.162.422 1.656 1.61 1.482.528-.696.474-1.37-.163-2.023zm25.79.67a.945.945 0 0 1 .373.73c-.105 1.242-.683 1.528-1.735.86-.1-.95.354-1.48 1.362-1.59zm-42.647.88c-2.178.078-3.62 1.2-4.323 3.368-.063 3.905 1.924 5.515 5.96 4.827 2.957-1.614 3.537-3.833 1.739-6.656a5.314 5.314 0 0 0-2.398-1.51 7.674 7.674 0 0 0-.978-.03zm45.309 1.658c.183.006.387.046.613.122.136.452.146.902.03 1.353-.134.7-.535.926-1.2.676a2.225 2.225 0 0 1-.56-1.095c.132-.65.445-1 .941-1.05.056-.006.115-.008.176-.006zm-45.135.078c.67.21 1.296.522 1.88.938.735 1.373.548 2.614-.562 3.723-2.405.833-3.75.038-4.037-2.386.397-1.34 1.303-2.1 2.72-2.275zm-77.331.054c-2.623.575-4.168 2.152-4.633 4.733.31 1.367 1.146 2.306 2.507 2.816 3.39 1.735 6.759 1.72 10.109-.047 1.864-.951 2.216-2.277 1.056-3.977a133.95 133.95 0 0 0-2.165-2.548c-.718-.474-1.26-.346-1.627.385a90.525 90.525 0 0 0 2.449 3.345c.1.179.155.369.166.57-2.353 1.931-5.017 2.441-7.99 1.53a9.226 9.226 0 0 1-2.565-1.569c-.232-.341-.268-.708-.11-1.1.15-.45.384-.855.702-1.214a8.524 8.524 0 0 1 2.517-1.496c.774-.72.635-1.197-.416-1.428zm-23.13.865c-2.77.075-5.076 1.155-6.922 3.24-.567 1.285-.295 2.373.812 3.263a12.81 12.81 0 0 0 3.178.481c1.158.325 1.358.864.601 1.619-2.477.965-3.205 2.641-2.184 5.028.683.697 1.522 1.047 2.518 1.05a8.792 8.792 0 0 0 2.42-1.129 8.95 8.95 0 0 0 .996-.287l.247.136a31.856 31.856 0 0 1-1.11 2.778c-.427 2.698.804 4.027 3.696 3.988 2.111-.29 3.675-1.34 4.69-3.15 1.844-3.819 1.899-7.686.16-11.602-1.766-2.987-4.395-4.782-7.888-5.385-.414-.03-.82-.04-1.215-.03zm142.948.53c.225.404.491.789.8 1.155.12.193.136.393.048.6-1.04.585-1.868.36-2.487-.675.241-.639.69-.994 1.345-1.066.094-.01.192-.015.294-.014zm2.873.244zm-121.78.427a3.794 3.794 0 0 0-1.713 2.348c.512.23 1.053.325 1.623.286.914-.299 1.198-.893.85-1.783a4.872 4.872 0 0 0-.76-.85zm-23.15.655a34.28 34.28 0 0 1 2.9.95c2.079 1.173 3.445 2.87 4.1 5.093.948 3.18.562 6.165-1.16 8.954-1.355 1.687-2.956 1.936-4.804.747a.616.616 0 0 1-.049-.599c.53-.642 1-1.323 1.404-2.044a9.352 9.352 0 0 0-.385-2.836c-.524-.8-1.248-1.031-2.175-.695a29.45 29.45 0 0 1-3.11 1.321.698.698 0 0 1-.493-.27 2.963 2.963 0 0 1-.11-1.349 72.837 72.837 0 0 0 3.543-2.777c.2-1.44-.43-2.43-1.888-2.97a215.394 215.394 0 0 0-3.315-.248.902.902 0 0 1-.36-.58c.172-.79.648-1.372 1.427-1.744a9.169 9.169 0 0 1 3.303-.924 9.81 9.81 0 0 1 1.172-.029zm26.585.172c-.499.002-.888.43-1.166 1.285-.064.882.358 1.287 1.267 1.214.695-.386 1.116-.962 1.265-1.727-.522-.516-.977-.773-1.366-.772Zm-73.114.928a17.208 17.208 0 0 0-1.45.02c-3.329.188-6.253 1.37-8.776 3.545-3.493 4.352-3.928 9.02-1.301 14.006 2.163 3.567 5.387 5.602 9.673 6.104 3.822.17 7.244-.844 10.268-3.04 5.296-6.308 4.864-12.304-1.295-17.987a16.7 16.7 0 0 0-7.119-2.648zm175.915.01c-2.903.185-5.238 1.383-7.007 3.593-.81 1.637-1.01 3.356-.604 5.156a68.966 68.966 0 0 1 3.856-.84 5.164 5.164 0 0 1-.51 2.44c-.285 1.201.172 2.001 1.371 2.4 1.67.37 3.349.417 5.033.142a1.18 1.18 0 0 0 .817-.577 6.616 6.616 0 0 0-.176-3.151c-.142-.904.248-1.254 1.17-1.05 2.55.935 3.66.09 3.326-2.539-1.638-2.833-4.063-4.69-7.276-5.574zm-75.897 1.587c-.57-.01-1.127.008-1.671.052a15.07 15.07 0 0 0-1.592.211c-3.104.584-5.729 2.13-7.875 4.638-1.32 1.845-1.965 3.892-1.936 6.142.494 3.416 2.495 5.526 6.003 6.33 1.3.112 2.57.106 3.808-.018 2.907-.291 5.641-1.235 8.202-2.83 1.574-1.398 2.506-3.137 2.796-5.215.688-3.52-.599-6.176-3.86-7.968a20.573 20.573 0 0 0-3.875-1.342zm-101.278.287c.985.08 1.989.193 3.01.342 5.472 1.565 8.293 5.08 8.462 10.544-1.496 6.817-5.887 9.772-13.173 8.866-4.814-1.497-7.578-4.639-8.293-9.426.04-6.382 3.372-9.824 9.994-10.326zm177.046.143c.35.012.712.048 1.085.107a18.149 18.149 0 0 1 3.918 2.845c.454.513.684 1.1.691 1.764a8.201 8.201 0 0 1-1.567.022 2.845 2.845 0 0 0-1.484-.888 1.844 1.844 0 0 0-1.256.003c-.27.378-.5.768-.69 1.171a5.3 5.3 0 0 0 .572 2.224c.153.592.201 1.192.145 1.797-1.2.235-2.423.31-3.67.226a2.634 2.634 0 0 1-.174-1.193c.729-1.19.915-2.456.557-3.799a3.142 3.142 0 0 0-1.196-.227c-.869.31-1.767.515-2.696.617a3.502 3.502 0 0 1 .113-1.512c1.129-1.88 2.674-2.92 4.636-3.125a7.294 7.294 0 0 1 1.016-.032zm20.755.779c-4.46.122-6.507 2.305-6.14 6.55 1.28 3.765 3.862 4.986 7.75 3.663 3.441-1.976 4.14-4.654 2.097-8.033a6.712 6.712 0 0 0-3.707-2.18zm-96.521.748c1.224.324 2.411.778 3.562 1.362 1.718 1.158 2.552 2.737 2.5 4.739-.04 2.434-1.12 4.282-3.239 5.544a16.957 16.957 0 0 1-6.088 1.856 17.81 17.81 0 0 1-3.965-.033c-2.375-.585-3.695-2.034-3.96-4.348a8.582 8.582 0 0 1 1.408-4.905c1.796-2.08 3.969-3.391 6.517-3.934.58-.123 1.18-.207 1.8-.25.476-.035.965-.045 1.465-.031zm-.06 1.208c-.326-.001-.645.01-.96.036a9.898 9.898 0 0 0-2.245.439c-1.283.412-2.448 1.094-3.497 2.045a58.283 58.283 0 0 1-2.202 2.846c-.895 1.616-.597 3.028.891 4.236a4.169 4.169 0 0 0 2.847.276 79.696 79.696 0 0 1 7.733-5.294c1.436-1.59 1.17-2.929-.795-4.015a32.35 32.35 0 0 1-1.772-.569zm95.85.648c.587.185.774.55.559 1.095a1.508 1.508 0 0 1-1.14.446c-1.05.155-1.367-.202-.95-1.07a2.383 2.383 0 0 1 1.531-.471zm-194.708.175c-.502-.007-1.03.023-1.585.09a1.696 1.696 0 0 0-.492.708c.01.755-.009 1.51-.053 2.261.172.554.373 1.094.602 1.62.55.06.979-.117 1.291-.531a3.52 3.52 0 0 0 .1-1.663l-.048-.6.625-.038c3.137.658 4.461 2.484 3.973 5.477-.54.464-1.181.629-1.921.495a35.274 35.274 0 0 0-2.151-.395c-.424.01-.751.18-.979.512-.683.188-.785.546-.305 1.073a.464.464 0 0 0 .402.125c.47-.053.94-.057 1.412-.011 3.617 1.349 5.511.179 5.68-3.511-.86-3.692-3.043-5.563-6.551-5.612Zm-19.84.921v2.83c.51.735.953 1.507 1.231 2.362.472 1.663.694 4.052-1.231 4.961v4.176a6.35 6.35 0 0 0 .44-.191c1.395-3.119 2.502-6.511 2.299-9.943-.254-1.698-1.63-2.89-2.74-4.195Zm118.855.204c.264.149.514.334.752.556.12.958-.295 1.637-1.249 2.034a716.98 716.98 0 0 1-1.238-1.73 1.89 1.89 0 0 1-.139-.745zm-104.425.179c-1.331.086-2.47.557-3.417 1.415-2.005 4.175-.975 7.549 3.093 10.122 3.45 1.672 4.656.72 3.614-2.857-.23-1.032-.867-1.47-1.91-1.312a.847.847 0 0 0-.426.553c.316.712.481 1.455.493 2.228a1.384 1.384 0 0 1-1.123-.308 4.096 4.096 0 0 0-1.43-1.191 10.448 10.448 0 0 1-1.546-2.615c-.108-1.514.306-2.87 1.242-4.066.427-.165.775-.061 1.045.312.218.58.546 1.088.986 1.52 1.496.357 1.9-.145 1.212-1.505a10.326 10.326 0 0 0-1.833-2.296zm100.988.308c.016.001.026.007.026.024-.116.45-.105.901.031 1.353l.018.029c.307.5.528 1.028.662 1.585a5.047 5.047 0 0 1-.662-.047 4.508 4.508 0 0 1-2.246-.978 26.962 26.962 0 0 1 1.578-1.828c.147-.065.3-.102.459-.113.036-.002.098-.026.134-.025zm24.904 1.528c-.923.013-1.343.507-1.26 1.483.437.684 1.054.871 1.85.563.978-.738.924-1.411-.164-2.023a3.29 3.29 0 0 0-.426-.023zm76.234.174c.31.038.605.12.883.247.217.507.121.94-.288 1.297-.564.11-1.134.17-1.711.182a.633.633 0 0 1-.571-.267c-.177-.363-.123-.668.162-.913l1.525-.546zm-33.177 1.14c-1.282.14-1.829.827-1.638 2.057.843.982 1.516.891 2.018-.274a2.763 2.763 0 0 0-.38-1.784zm-70.78.82c.155.113.321.228.499.345.502 0 .98.095 1.436.288-.7.812-1.6 1.319-2.702 1.522a3.05 3.05 0 0 1-.08-1.953 1.448 1.448 0 0 1 .847-.203zm93.16.362c-1.324-.033-2.006.586-2.048 1.857.092.683.481.96 1.166.831.795-.346 1.165-.945 1.11-1.8l-.229-.888zm24.878 2.984c.254.302.224.58-.09.834a17.908 17.908 0 0 1-3.28.202c-.454-.105-.579-.348-.372-.73a46.655 46.655 0 0 1 3.742-.306zm-96.023.085c-3.185.075-5.303 1.74-6.354 4.996-.623 3.112.43 5.477 3.155 7.097.74.355 1.494.64 2.263.854a11.385 11.385 0 0 0 5.604-1.095c2.467-1.809 3.463-4.156 2.986-7.043-.938-2.91-3.012-4.491-6.223-4.744a10.879 10.879 0 0 0-1.43-.065zm-50.066.026c-1.196-.043-1.598.484-1.207 1.58.382.522.89.666 1.526.433.36-.716.252-1.387-.32-2.013zm50.111 1.62c.42-.015.866.002 1.34.05 2.924.338 4.45 1.904 4.58 4.7-.089 1.927-1.034 3.344-2.835 4.253a10.703 10.703 0 0 1-4.16.531c-2.325-.705-3.567-2.23-3.727-4.573.267-3.206 1.868-4.86 4.802-4.961zM240 69.497c-3.74 2.768-2.958 5.318 0 4.176zm-104.453 1.014c-1.584-.072-2.774.63-3.57 2.108-.4 1.73.258 2.854 1.976 3.373.17.017.338.027.503.03 1.16.018 2.217-.326 3.17-1.031 1.134-1.967.675-3.434-1.376-4.401a5.627 5.627 0 0 0-.703-.079zm-.32 1.539c.589-.004 1.05.3 1.384.914-.271 1.004-.952 1.512-2.044 1.524-1.236-.63-1.31-1.377-.221-2.24.32-.13.613-.196.88-.198zm-72.663.456c.843 1.915.28 2.156 1.363 3.956-7.506-2.377-21.368 1.88-28.075-1.989-.584 3.716 2.305 6.57 6.741 8.511h7.754c-5.224-.9-10.037-2.588-10.662-5.952 6.174 3.51 17.944-.413 24.82 1.736-1.123 1.091-1.995.312-2.175 2.458a5.613 5.613 0 0 0 .011 1.758h1.874c-.266-.38-.346-.89-.034-1.72 1.608-.498 1.615-1.375 2.698-2.664-.7-.74-.644-2.44-.582-2.961 2.085.746 2.816.593 3.799 2.787.568 1.5.21 3.08-.453 4.558h2.148c.275-1.416 3.674-.76 4.834 0h3.092c-.5-2.403-3.898-2.082-6.216-2.735-2.026.185-.989-2.093-1.967-3.182-1.09-2.176-1.146-2.586-3.393-3.275-2.525-.45-3.34-.204-5.577-1.286zm39.672.344a14.266 14.266 0 0 0-5.95 1.487 356.029 356.029 0 0 1-8.725 4.677c-.594.427-.768 3.552 4.06-.25a43.457 43.457 0 0 1 8.929-4.088c3.34-.926 7.861 5.323 9.395 8.308 0 0 .894.012 1.52.012h-1.52c.23.502.557 1.456.876 1.924 2.206 2.739 5.126 4.24 8.76 4.504 4.541-.222 5.9-.304 9.821-.922 2.14-.381 1.529-2.679-.19-2.177-4.45.806-7.29.953-9.789 1.152-2.244-.215-4.219-1.022-5.924-2.421-.477-.552-1.041-1.461-1.44-2.06h-.489c.287 0 .494-.003.488-.012-.933-2.478-5.057-9.383-7.726-10.046a15.27 15.27 0 0 0-2.096-.088zm48.821 7.18c-2.728.112-5.438.702-7.99 1.61a7.24 7.24 0 0 0-2.18 1.356c-1.005.923-1.668 2.143-1.491 3.532.143 2.02 1.94 3.658 3.966 4.004 3.31.938 7.125.201 10.12 2.098 1.866 1.69 1.297 4.688-.335 6.339-1.579 1.825-3.787 3.666-3.607 6.271.037 1.403.545 2.819 1.545 3.858 1.778 1.778 4.761 1.314 6.744.12 6.853-3.548 10.76-11.89 8.408-19.112-.839-2.767-2.61-5.286-4.942-7.11-2.128-1.663-4.724-2.747-7.508-2.911a22.14 22.14 0 0 0-2.73-.055zm53.674.536c-.332-.012-.667-.01-1.004.007-1.62.081-3.3.501-5.04 1.26-.41.373-.806.757-1.188 1.151h3.29c.06-.03.12-.06.18-.088 2.41-.675 4.6-.645 6.569.088h3.784c-2.068-1.525-4.265-2.331-6.59-2.418zm-51.865 1.207c1.755.056 3.5.475 5.074 1.223a11.76 11.76 0 0 1 2.085 1.268c-2.825 1.347-6.304 1.907-8.285 4.486-.536 1.783-2.654.485-3.918.629 1.396-1.98 1.981-4.558 3.59-6.383a6.185 6.185 0 0 1 1.454-1.223zm-2.853.137a9.095 9.095 0 0 0-.818 1.086c-1.28 1.978-1.896 4.332-3.429 6.17-1.308-.195-2.728-.336-3.775-1.197-1.485-1.298-.626-3.855 1.213-4.377.437-.232.888-.428 1.35-.596 1.737-.633 3.621-.867 5.459-1.086zm-107.42 1.086C47.68 85.222 54.798 86.25 61.053 86c-.796.961-.63 2.107-1.754 2.978.01.064 3.377 1.463 7.642-.238 1.555-.697 2.822-1.963 3.58-3.434 2.705 1.895 2.615 1.057 5.656 5.915 1.728-2.437 2.862-5.207 3.573-8.028a2.753 2.753 0 0 0-.033-.197h-3.092c.136.09.241.18.307.268 1.827 1.324.23 2.924-.464 4.55-1.114-1.884-2.88-3.048-4.685-4.47a1.103 1.103 0 0 1 .008-.348h-2.148c-.343.767-.767 1.506-1.187 2.193-2.004 2.36-3.82 2.497-6.706 2.819 0 0-.802-3.158 4.004-3.772-.517-.469-1.188-.74-1.539-1.24h-1.874a5.62 5.62 0 0 0 .3 1.158c-2.635-.179-7.629-.354-12.293-1.158zm154.906 0c-.391.406-.768.822-1.13 1.25a7.549 7.549 0 0 0-1.573.924c-.65-.763-1.19-1.256-1.945-1.942-.117-.092-.914-.126-.953.066-.13.572-.132.87.04 1.45.853.982 1.232 2.113 1.136 3.393a86.9 86.9 0 0 0-4.378.194c-.86.353-.928.808-.203 1.368a6.787 6.787 0 0 0 2.222.314c.14.13.305.22.493.271-2.602 1.25-4.086 3.273-4.453 6.07-.185 4.573 1.649 8.174 5.5 10.803 2.804 2.285 6.012 3.794 9.625 4.526 2.096.414 4.06.118 5.891-.89a35.41 35.41 0 0 0 3.577-4.285 22.76 22.76 0 0 1 1.844-.49c2.806-.793 4.573-2.558 5.3-5.294.708-3.414.234-6.697-1.423-9.849a24.21 24.21 0 0 0-4.136-6.52 16.721 16.721 0 0 0-1.61-1.359h-3.785c1.566.583 2.992 1.611 4.28 3.084a38.084 38.084 0 0 1 3.643 6.25c1.28 2.671 1.554 5.414.821 8.229-.88 2.491-2.687 3.757-5.42 3.796a7.625 7.625 0 0 0-2.804 3.184 6.578 6.578 0 0 1-2.57 2.19c-2.19.38-4.303.133-6.336-.738a43.177 43.177 0 0 1-4.265-2.297 161.22 161.22 0 0 1-3.624-3.09c-2.316-2.662-2.974-5.633-1.975-8.911.61-1.518 1.704-2.54 3.284-3.063.59-.122 1.12-.054 1.586.204-1.646 2.222-1.999 4.652-1.06 7.292.302.577.754 1 1.359 1.27a.713.713 0 0 0 .444-.328 32.919 32.919 0 0 1-.531-4.634c.387-2.119 1.688-3.177 3.902-3.176a17.748 17.748 0 0 0 2.32 1.513c.32.081.632.062.936-.057.14-.421.132-.847-.025-1.279a4.623 4.623 0 0 0-1.556-.807 4.947 4.947 0 0 0-.763-.706 1.305 1.305 0 0 1-.295-.734 30.302 30.302 0 0 1 3.98-4.16c.076-.82-.293-1.174-1.106-1.06a31.647 31.647 0 0 0-2.881 2.21 2.962 2.962 0 0 1-.11-1.349c.181-1.287.854-2.232 2.018-2.832zm24.681 0a17.511 17.511 0 0 1 2.654 6.727c.449 5.301-1.67 10.553-.72 15.895 3.936 1.668.943-6.03 2.203-8.155 1.015-4.858 1.138-10.23-1.84-14.467zM97.037 84.263l-7.027.432c-5.266 1.666-8.464 5.124-9.598 10.377-.188 3.029.463 5.9 1.95 8.612 3.6 5.036 8.55 7.065 14.851 6.087 7.915-2.288 11.4-7.396 10.454-15.323-1.66-5.224-5.203-8.619-10.63-10.185zm-91.933.127a12.19 12.19 0 0 0-2.653.37c-.847.295-1.66.643-2.435 1.043v2.126c1.913-1.123 4.046-1.699 6.399-1.728a16.12 16.12 0 0 1 1.647.065c1.218.42 1.39 1.096.518 2.029a5.971 5.971 0 0 1-2.124.75 5.445 5.445 0 0 1-.987 3.303 1.104 1.104 0 0 1-.387-.3 14.418 14.418 0 0 0-1.909-3.231c-1.249-.25-1.7.225-1.35 1.426.396.526.753 1.076 1.07 1.653.781 1.982.307 2.332-1.424 1.05-.044-.5-.09-1.001-.133-1.502-.32-.504-.76-.778-1.32-.821v3.778l.1.122a6.677 6.677 0 0 0 3.588.754c.447.437.57.963.368 1.578a36.235 36.235 0 0 0-.84 3.905 24.177 24.177 0 0 1-1.063 3.154 1.063 1.063 0 0 1-.94.074 11.37 11.37 0 0 1-1.213-.593v2.195l.093.05c.904.35 1.841.45 2.812.303.724-.24 1.174-.714 1.351-1.426a122.183 122.183 0 0 1 2-8.262 154.66 154.66 0 0 1 1.807-5.857c1.32-.408 2.323-1.208 3.01-2.402.11-.5.118-1.002.021-1.502-.869-.99-1.98-1.617-3.337-1.88a12.187 12.187 0 0 0-2.669-.224Zm89.7 1.365c4.548.69 7.95 2.99 10.207 6.9 2.301 6.915.062 11.895-6.718 14.942-5.226 1.375-9.691.17-13.395-3.617-1.727-2.524-2.577-5.282-2.551-8.274 1.55-6.252 5.702-9.569 12.456-9.95zM240 85.803a17.913 17.913 0 0 0-4.435 3.233 11.614 11.614 0 0 0-2.024 4.656 15.604 15.604 0 0 0-.052 1.954c.168 4.374 2.339 7.689 6.511 9.944v-2.195c-.33-.188-.65-.39-.96-.61-2.454-2.218-3.645-4.892-3.57-8.022.01-.448.047-.904.11-1.37a11.09 11.09 0 0 1 1.215-2.854c.99-1.066 2.058-1.936 3.205-2.61zm-78.912 0c1.328-.037 2.317 2.002 2.314 3.121-.453 1.577-2.186 2.436-3.723 2.803-1.936.045-4.213.186-5.798-.985a7.262 7.262 0 0 0-1.05-.48c1.585-2.57 4.904-3.009 7.489-4.205.265-.168.522-.247.768-.254zm13.124.222c-.488-.01-.964.131-1.208.567-.494 1.4 2.09 2.93 2.81 8.487.267 1.129.258 2.294.446 3.435.08.763.471 1.69 1.393 1.742 2.766-.07 3.222-3.733 3.297-4.92.187-2.02-.4-4.075-1.579-5.754-1.041-1.508-2.523-2.798-4.318-3.406a2.919 2.919 0 0 0-.841-.151zm-80.89 1.546c-1.93.03-3.552.76-4.865 2.188-.047 1.177.47 2.073 1.552 2.69a24.61 24.61 0 0 0 4.199 1.473 6.84 6.84 0 0 0 .762-.273 17.647 17.647 0 0 0 1.62-2.282c.242-.323.535-.592.877-.807.502-.772.37-1.441-.397-2.008a9.098 9.098 0 0 0-2.902-.95 8.515 8.515 0 0 0-.846-.03zm-71.693 1.485c-.67.164-1.188.547-1.556 1.15-.078.891.357 1.416 1.305 1.575.836-.441 1.072-1.108.702-2l-.451-.725zm71.266.28a1.19 1.19 0 0 1-.03.604c-.525.297-.577.626-.155.988.424.074.841.049 1.25-.077a3.17 3.17 0 0 1 .972-.587l.246.135a6.312 6.312 0 0 1-1.338 1.89 14.039 14.039 0 0 0-2.187-.844 3.454 3.454 0 0 1-1.16-.757l1.628-1.23a2.08 2.08 0 0 1 .774-.122zm83.764.213c2.155 1.573 3.08 4.451 2.39 6.942-.188.321-.637 1.08-1.065.564-.692-2.769-.286-5.278-1.325-7.506zm-136.111.6a5.58 5.58 0 0 0-.647.02 5.18 5.18 0 0 0-1.821.509 17.955 17.955 0 0 1-3.11 2.299 86.8 86.8 0 0 0-12.657 6.5 50.607 50.607 0 0 0-9.869 8.963l-1.968 2.831a16.175 16.175 0 0 0-2.437 2.86c-.82 1.506-.703 2.954.351 4.345.958.939 2.04 1.7 3.244 2.284a58.293 58.293 0 0 0 6.296 2.172 90.297 90.297 0 0 0 7.942 3.124C39.028 133.48 52.9 139.45 67.49 143.97c.67.27 1.355.328 2.054.174.76-1.151.797-2.333.106-3.544a768.716 768.716 0 0 1-18.023-30.808L44.8 99.072a16.07 16.07 0 0 1 .16-2.871 9.266 9.266 0 0 0-2.17-4.534 6.772 6.772 0 0 0-2.241-1.518zm199.297.468c-.857 1.316-.806 2.578.155 3.784v-3.778a2.173 2.173 0 0 0-.155-.006zm-45.766.243zm-30.106.333c1.59-.067.647 2.432 1.167 3.427.156 1.816-1.755 3.086-3.506 2.667-1.911-.344-3.232-2.055-5.196-2.248-.767-1.234.601-2.258 1.742-1.503 2.152.106 4.49-.615 5.793-2.343zM40.405 92.266c2 1.13 2.813 2.786 2.441 4.968a10.144 10.144 0 0 0-3.561.596 61.828 61.828 0 0 1-3.422 2.319c-1.573.521-3.154 1.02-4.744 1.496a10.846 10.846 0 0 0-3.59 2.178l-3.001 3.648-1.633 1.154c-3.7 1.322-6.01 3.822-6.927 7.503a.404.404 0 0 1-.469.028 13.22 13.22 0 0 0-4.049-2.535c-.093-.34-.013-.645.24-.919 6.4-8.382 14.668-14.486 24.806-18.313a9.959 9.959 0 0 0 2.666-1.971c.407-.1.82-.15 1.243-.152zm90.45.755c-4.23.303-7.854 1.517-10.871 3.643-2.155 1.518-4.001 3.5-5.538 5.949-1.08 2.346-1.303 4.769-.668 7.267.79 1.819 2.033 3.273 3.726 4.363a7.007 7.007 0 0 0 2.48.752c.945.097 1.908-.013 2.89-.33a37 37 0 0 0 3.89-2.347 262.267 262.267 0 0 0 3.259 6.348c.71.806 1.596 1.078 2.654.816a58.203 58.203 0 0 1 3.447-2.02 18.92 18.92 0 0 0 3.483-1.569 3.87 3.87 0 0 0 1.224-1.355 1.806 1.806 0 0 0-.085-1.048 79.562 79.562 0 0 1-4.182-5.163 1.232 1.232 0 0 1-.127-.594c5.142-2.675 6.07-6.396 2.786-11.162-2.267-2.35-5.056-3.533-8.368-3.55zm-43.78.178c-.198.01-.401.034-.61.07-.824.314-1.38.875-1.668 1.684a9.088 9.088 0 0 0-.262 4.533c.132.587.408 1.097.83 1.53 2.065.036 3.958-.482 5.68-1.555 1.115-1.2.862-1.736-.758-1.609a8.602 8.602 0 0 1-2.473 1.432l-.403-.126c.28-.254.412-.563.396-.927-.374.03-.742.003-1.105-.083a.943.943 0 0 1-.649-.261c.92-.207 1.852-.314 2.799-.323 1.721-.195 2.25-1.08 1.59-2.657-.86-1.212-1.982-1.781-3.367-1.708zm14.928.093a5.273 5.273 0 0 0-1.243.152 21.02 21.02 0 0 1-3.015 1.54c-.387.184-.625.474-.714.872.267.59.55 1.176.848 1.755.079.765.243 1.507.493 2.227.826.73 1.69 1.404 2.597 2.024.94.539 1.684.367 2.233-.514 1.143-2.324 1.114-4.63-.088-6.92a11.833 11.833 0 0 0-1.111-1.136zM87.425 94.91c.13-.008.273-.007.429.005.308.381.449.824.42 1.329-.571.069-1.14.154-1.705.255-.34-1.003-.056-1.533.856-1.59zm-33.631.081-.049.001c-.575.037-1.18.902-.578 2.47 1.922 2.906 4.86 4.947 8.235 6.082a500.75 500.75 0 0 1 8.481 2.037c1.995.778 3.686 1.953 5.072 3.527a25.973 25.973 0 0 1 3.03 6.437c2.047 4.594 5.631 6.557 10.754 5.887a32.82 32.82 0 0 1 4.732-1.646c5.224-.612 10.298.029 15.22 1.924l11.293 5.104.434.196a89.21 89.21 0 0 0 4.661 1.37c5.682 1.34 10.835.37 15.458-2.91a112.178 112.178 0 0 0 5.102-4.83l1.801-1.014c1.646-.857 3.104-.62 4.373.709a26.338 26.338 0 0 1 3.2 8.535c1.439 4.086 4.255 6.899 8.45 8.438 2.509.525 5.012 1.073 7.507 1.645 2.027.658 3.713 1.784 5.06 3.377a100.707 100.707 0 0 1 2.957 5.54c4.617 7.933 11.321 10.306 20.112 7.117a32.561 32.561 0 0 0 6.364-4.758c2.344-1.974 5.087-2.996 8.226-3.066 3.386.495 6.298 1.897 8.735 4.205a56.064 56.064 0 0 0 6.034 5.726 19.867 19.867 0 0 0 5.18 2.904H240v-.703c-4.477-.04-8.36-1.55-11.652-4.528a51.78 51.78 0 0 0-7.703-6.978c-2.924-1.877-6.12-2.584-9.587-2.12-2.727.648-5.14 1.85-7.241 3.607a24.298 24.298 0 0 1-5.932 4.28c-7.102 2.54-12.665.699-16.687-5.522l-3.32-6.119c-1.495-2.178-3.526-3.684-6.091-4.517a327.076 327.076 0 0 0-7.677-1.786c-2.78-.78-4.871-2.383-6.273-4.808a38.806 38.806 0 0 1-2.298-7.085 28.836 28.836 0 0 0-1.347-3.079c-1.385-2.109-2.974-3.217-4.767-3.325-1.395-.083-2.913.438-4.555 1.565a34.41 34.41 0 0 0-5.547 5.16 14.476 14.476 0 0 1-2.39 1.502c-4.686 1.73-9.44 1.822-14.258.275a57.213 57.213 0 0 1-8.795-3.975 45.493 45.493 0 0 0-16.194-4.272c-3.31.005-6.444.7-9.404 2.084-3.889.525-6.648-.936-8.28-4.383a206.055 206.055 0 0 0-2.513-5.868c-1.955-2.975-4.703-4.939-8.243-5.89a327.878 327.878 0 0 1-7.677-1.786c-3.276-1.147-5.669-3.233-7.174-6.258-.125-.317-.357-.473-.601-.478zm78.958.063c1.727.224 3.22.91 4.481 2.058 3.085 3.873 2.419 6.95-2 9.232a.446.446 0 0 1-.553-.042 1.996 1.996 0 0 1-.5-1.324c1.998.429 2.748-.32 2.251-2.246-1.043-.998-2.237-1.2-3.58-.608-1.344 1.456-1.403 2.99-.177 4.603a79.277 79.277 0 0 1 5.848 7.318 142.81 142.81 0 0 0-6.683 3.724 3.776 3.776 0 0 1-.877-1.15 140.728 140.728 0 0 0-3.957-8.188 4.772 4.772 0 0 0-1.635-1.781 3.098 3.098 0 0 0-2.21-.165c-1.767.786-2.472 2.11-2.112 3.969.219.321.523.528.914.62 1.494.034 2.566-.61 3.218-1.928.277.185.479.424.607.715l.006.038-.01-.006c.02.116.024.228.014.339-.014.133-.05.262-.106.387a21.634 21.634 0 0 0-3.284 2.085 4.914 4.914 0 0 1-2.63.462 6.697 6.697 0 0 1-3.22-1.984c-1.75-3.652-1.344-7.04 1.22-10.163a20.784 20.784 0 0 1 2.207-2.02c3.037-2.393 6.56-3.702 10.57-3.928a23.27 23.27 0 0 1 2.198-.017zm-31.229.073c.205.405.395.82.572 1.244l-.138.235a2.57 2.57 0 0 0-1.766-.494c.066.729.279 1.418.637 2.069.388.236.813.31 1.274.222a6.75 6.75 0 0 1-.204 1.368c-.845-.063-1.529-.423-2.048-1.078a26.114 26.114 0 0 1-.308-2.842l1.981-.724zm138.01.822a.948.948 0 0 0-.71.3c-.204.84.1 1.416.914 1.728l.263.035v-2.006a13.536 13.536 0 0 0-.468-.057zM.015 96.007v2.005c.408.055.815.12 1.22.193 1.193-.166 1.489-.741.886-1.727-.689-.213-1.39-.37-2.106-.47Zm156.756 1.048h.1c.79.03 1.76.727 2.411 1.198 1.43.968 3.517.824 4.879.608.082 1.424-1.01 2.834-1.843 3.942-2.16 1.094-5.068.028-6.14-.893-1.597-1.551-1.173-2.532-.513-3.698.198-.832.61-1.139 1.106-1.157zM41.838 99.42c.185-.003.37.006.56.025a162.05 162.05 0 0 1 2.896 3.811 270.809 270.809 0 0 0 4.52 7.4 507.214 507.214 0 0 0 13.479 23.109 252.845 252.845 0 0 1 4.118 7.274l.036.45-.468.028a63.958 63.958 0 0 1-6.265-1.797 274.59 274.59 0 0 1-19.476-7.985c-.652-.286-1.106-.735-1.364-1.347 1.318-2.119 1.471-3.312 1.023-5.784-1.639-3.603-4.446-5.01-8.422-4.224-2.135.941-3.158 2.535-3.067 4.781-.418.05-.835.051-1.255.002a82.447 82.447 0 0 0-11.522-4.71c-.433-.523-.506-1.096-.217-1.718l1.296-1.435a71.543 71.543 0 0 1 1.284-3.542l1.512-1.674a31.045 31.045 0 0 1 4.371-2.226 12.787 12.787 0 0 0 1.669-1.684c1.204-2.02 2.884-3.554 5.043-4.601a38.262 38.262 0 0 0 5.5-1.844 50.77 50.77 0 0 1 3.134-2 4.694 4.694 0 0 1 1.615-.309zm51.34 1.19c-.93.054-1.685.426-2.264 1.118a12.01 12.01 0 0 0-2.33 1.272c-.071.406-.039.806.098 1.199a6.285 6.285 0 0 0 3.183 1.535c2.022.362 4 .24 5.934-.365.871-.389 1.159-1.034.864-1.935a7.95 7.95 0 0 1-1.935-2.591 2.635 2.635 0 0 0-1.49.016c-.24.183-.378.418-.413.703.328.66.693 1.29 1.094 1.89a1.378 1.378 0 0 1-.631-.036c-.315-.544-.784-.841-1.406-.893-.78.157-1.082.628-.906 1.411-.575.15-.854-.059-.836-.626l.114-.534 1.213-.526c.395-.623.299-1.169-.29-1.638zm60.173 1.026c.69.009 1.373 1.42 2 1.832 1.47 1.1 3.39 1.54 5.23 1.454-1.564 1.453-5.91 5.292-8.194 2.972-1.381-1.568-1.331-4.156.217-5.604.248-.477.498-.657.747-.654zm26.074 2.095c-1.114.01-1.568.54-1.362 1.59.59 1.015 1.223 1.077 1.898.184a2.405 2.405 0 0 0-.536-1.774zm32.408 1.016zm-19.758.163-.625.038.625-.038zm-1.526.545.08.076-.08-.076zm-150.888.022a3.448 3.448 0 0 0-.65.067l-.202.019c-2.517.088-4.927 1.922-5.205 4.397-.754 3.005 1.184 6.706 4.515 7.239 2.175.365 4.524-.32 5.92-2.007 2.063-2.188 1.504-5.738-.508-7.773-1.011-1.017-2.372-1.955-3.87-1.942zm-1.846 2.698c.029 0 .058.002.087.005 1.757.717-1.472 2.794-1.103.665.165-.383.58-.674 1.016-.67zm4.229 2.738a2.12 2.12 0 0 1 .498.04c.987.875-.053 3.122-1.328 1.964-.86-.975-.267-1.957.83-2.004zm22.425.274a4.512 4.512 0 0 0-.51.017c-.996.09-1.843.523-2.54 1.297a2.187 2.187 0 0 0 .277 1.489 60.814 60.814 0 0 1 6.514 4.868 171.264 171.264 0 0 1 2.908 3.961c.466.19.939.212 1.418.064.928-1.928.903-3.859-.075-5.792a21.86 21.86 0 0 0-1.119-2.19 17.18 17.18 0 0 0-2.944-2.453 23.784 23.784 0 0 0-3.394-1.221 5.266 5.266 0 0 0-.535-.04zm107.561.075a14.706 14.706 0 0 0-1.64.051c-3.695.329-6.48 2.123-8.356 5.383a6.16 6.16 0 0 0-.443 4.242c.564 1.327 1.59 2.041 3.076 2.144 1.1.118 2.2.126 3.298.023a11.268 11.268 0 0 1-1.77 4.325c-.07.62.03 1.216.302 1.788 1.265 1.215 2.8 1.748 4.601 1.599a4.107 4.107 0 0 0 1.562-.097l.36-.398c.132-1.153.195-2.31.19-3.475.07-.72.249-1.409.54-2.065.252-.116.512-.132.78-.048 1.845 1.233 3.868 1.66 6.067 1.282a5.158 5.158 0 0 0 1.344-1.814c1.342-5.86-.898-9.962-6.721-12.308a20.605 20.605 0 0 0-3.19-.632zm-64.768.525a2.387 2.387 0 0 0-1.567 1c-.128.837.246 1.266 1.124 1.285.378-.009.652-.176.823-.502a2.408 2.408 0 0 0-.38-1.783zm-106.533.235c-.28.004-.517.04-.713.108v2.277c.284.12.636.095 1.056-.073.564-.842.45-1.613-.343-2.312zM240 112.13c-2.772.759-.829 1.518 0 2.277zm-202.033.296a.972.972 0 0 1 .143.005c1.334.985.46 2.84-.998 1.368-.668-.658.132-1.35.855-1.373zm183.337.624a18.824 18.824 0 0 0-4.042.622 61.89 61.89 0 0 0-9.066 4.322c-6.504 2-12.259.698-17.263-3.906-.3-.088-.529.001-.685.268-.272.594-.175 1.14.29 1.639 2.633 2.332 5.709 3.824 9.227 4.475 2.937.556 5.795.33 8.576-.678a120.51 120.51 0 0 0 7.241-3.608c8.079-3.33 13.73-1.044 16.953 6.86 1.315 2.005 5.243 4.145 7.465 5.135v-2.069c-4.519-1.405-6.861-5.09-8.008-7.85-1.57-2.426-3.77-4.072-6.598-4.938a18.967 18.967 0 0 0-4.09-.272zm-48.973 0c.79.208 1.594.435 2.41.68 4.185 1.394 6.164 4.208 5.938 8.442a5.92 5.92 0 0 1-1.164 2.104 3.833 3.833 0 0 1-2.223-.315 1226.6 1226.6 0 0 0-3.916-1.866l-2.571-.745c-2.04-.036-4.082-.06-6.126-.075a2.017 2.017 0 0 1-1.058-.462c-.559-1.64-.316-3.16.73-4.561 1.85-1.964 4.118-3.026 6.804-3.187.383-.023.775-.028 1.176-.014zm-106.701.095c2.924.83 4.668 2.68 5.234 5.55a48.915 48.915 0 0 0-6.267-4.733.718.718 0 0 1-.205-.59 6.71 6.71 0 0 1 1.238-.227zm-38.659.81c-.983-.025-1.72.393-2.21 1.255.04 1.745.961 2.466 2.763 2.163 1.906-1.11.78-2.571-.116-3.38a3.712 3.712 0 0 0-.437-.038zm-16.3 1.05c.06 0 .122.001.185.007a105.489 105.489 0 0 0 3.624 3.09c.174.547.192 1.098.054 1.652a18.824 18.824 0 0 1-4.68-2.572 3.236 3.236 0 0 1-.3-1.789 1.704 1.704 0 0 1 1.116-.388zm161.566.761a1.606 1.606 0 0 0-.919.283 2.696 2.696 0 0 1-.804.727c-.2.788.123 1.22.968 1.295 1.264-.418 1.516-1.186.755-2.305zm-5.146 1.371c-.27.149-.549.266-.835.353.195.51.494.967.895 1.375.449.118.751-.025.907-.432.23-.547.041-.937-.565-1.17a.55.55 0 0 0-.402-.126zm-118.375.154c-1.306.053-1.695.799-1.167 2.237.286.481.721.705 1.31.672 1.138-.143 1.079-1.866.473-2.89a4.682 4.682 0 0 0-.616-.02zm128.477 1.743c-.29-.01-.646.052-1.068.182a2.824 2.824 0 0 0 .049 1.577c.195.373.501.605.919.697.287.127.603.157.949.092l-.049-.6c.335-1.273.068-1.922-.8-1.948zm42.615 2.837c-5.291.174-8.459 2.728-9.504 7.661-.113 3.75 1.503 6.586 4.846 8.51 3.568 1.627 6.831 1.225 9.789-1.206 3.026-3.356 3.537-7.076 1.531-11.16-1.608-2.298-3.829-3.566-6.662-3.805zm-48.89 1.183c.06 0 .12.002.182.01.26.674.473 1.363.638 2.068a19.101 19.101 0 0 0-.4 3.788c-1.105.325-2.163.189-3.172-.407a.941.941 0 0 1-.06-.749c.58-1.419 1.2-2.812 1.86-4.179a1.09 1.09 0 0 1 .952-.53zm-137.126.007c.102-.004.205-.002.312.004.03.92-.424 1.45-1.362 1.59-.548.031-.775-.206-.686-.71.45-.562 1.028-.856 1.736-.884zm186.641.73c1.76.31 3.164 1.178 4.212 2.6 1.907 3.507 1.456 6.671-1.352 9.493-1.253.948-2.682 1.387-4.288 1.318-3.302-.284-5.45-1.934-6.441-4.948-.776-2.72-.097-4.995 2.038-6.825a9.767 9.767 0 0 1 4.265-1.57 10.68 10.68 0 0 1 1.566-.069zm-169.424.118c-1.737.041-3.49.822-4.362 2.312-.822 1.23-.954 2.8-.453 4.169.374 1.374 1.152 2.753 2.548 3.379 1.55.738 3.451.651 5.013-.005 1.551-.67 2.497-2.222 2.838-3.77.213-1.484-.22-5.02-4.843-6.057a6.032 6.032 0 0 0-.741-.028zm-13.61.843a6.11 6.11 0 0 1 1.27 2.51.584.584 0 0 1-.419.137 5.28 5.28 0 0 1-1.164-.465c-.787-.871-.684-1.599.313-2.182zm63.555 1.138c-.705.018-1.408.082-2.11.191a30.96 30.96 0 0 0-9.356 2.684c-3.427 2.108-5.407 5.116-5.941 9.023.162 2.155.44 4.296.833 6.422a32.366 32.366 0 0 1-2.605 2.72c-.235.409-.227.81.018 1.203a.428.428 0 0 0 .187.365c.304.099.562.058.774-.123.22-.045.422-.133.607-.263a18.442 18.442 0 0 1 2.468-2.485 15.81 15.81 0 0 1 2.51-.004c4.396.922 8.186-.089 11.367-3.034a21.177 21.177 0 0 0 3.216-5.843 28.45 28.45 0 0 0 1.917-8.324c.02-1.23-.57-2.046-1.767-2.45a16.5 16.5 0 0 0-2.118-.082zm94.544.038c-5.989.402-9.645 3.387-10.968 8.955-.024 5.986 3.013 9.587 9.11 10.806 5.096.015 8.602-2.233 10.52-6.745 1.13-5.722-1.062-9.878-6.578-12.467a47.593 47.593 0 0 1-2.084-.55zm23.351.133c-1.874.033-3.337.854-4.39 2.463-.653 1.693-.42 3.285.7 4.775l1.455 1.491c.447.26.931.43 1.453.513a13.267 13.267 0 0 0 3.411-.511c2.713-2.002 3.12-4.41 1.222-7.227a7.744 7.744 0 0 0-3.022-1.47 7.28 7.28 0 0 0-.829-.034zm-218.833.05v2.069c4.057 1.81 5.951 2.25 10.58 3.033 3.18.298 6.312.858 9.393 1.68 7.192 2.328 10.43 7.122 9.714 14.382a50.62 50.62 0 0 0-1.307 5.199A14.909 14.909 0 0 0 29.594 160h2.268c-1.419-2.66-1.87-5.513-1.352-8.56a20.549 20.549 0 0 0 1.215-7.3c-.622-5.935-3.78-10.081-9.478-12.44a58.789 58.789 0 0 0-12.134-2.566c-5.879-.762-6.289-1.706-10.097-3.023Zm49.822.41.076.003c.844.098.782 1.36.275 1.788-.826.577-1.885-.456-1.242-1.233.182-.306.516-.552.891-.558zm-15.432.29c1.133.384 1.424 1.068.872 2.054a6.533 6.533 0 0 1-2.403-1.583.547.547 0 0 1 .288-.32c.408-.1.821-.15 1.243-.151zm184.603.901c.206 0 .421.013.646.04a4.517 4.517 0 0 1 2.085 1.528c.172.843.24 1.691.205 2.547-.412.505-.872.96-1.38 1.365-.728.453-1.505.55-2.33.294-1.459-.846-2.212-2.08-2.26-3.7.577-1.377 1.588-2.069 3.034-2.073zm-118.609.155c2.052-.127 2.831.778 2.338 2.717a175.36 175.36 0 0 1-2.662 7.842c-2.352 4.357-6.103 6.169-11.252 5.435-.491-.074-.696-.337-.613-.79.428-.964 1.128-1.684 2.1-2.162a19.28 19.28 0 0 0 6.738-2.071c.37-.353.492-.787.366-1.302-.577.01-1.148.07-1.712.18-.892.385-1.813.643-2.762.773a59.747 59.747 0 0 1 2.569-3.17 25.038 25.038 0 0 0 3.601-3.006c.367-1.216-.05-1.516-1.25-.902a18.538 18.538 0 0 0-5.42 4.775.62.62 0 0 0-.37.141.627.627 0 0 0-.108.12.764.764 0 0 0-.044.072 6.927 6.927 0 0 1-.476-1.025 5.994 5.994 0 0 0-.691-1.764c-.842-.217-1.286.111-1.333.986.186 1.746.063 3.46-.369 5.141a23.8 23.8 0 0 1-2.245 2.321.675.675 0 0 1-.709-.031c-1.375-4.61-.136-8.374 3.718-11.295 3.259-1.812 6.788-2.808 10.586-2.985zm95.099.017c2.058.525 3.79 1.573 5.197 3.143 2.29 2.492 2.72 5.226 1.29 8.201-1.725 2.942-4.347 4.483-7.866 4.625-5.237-.883-7.753-3.865-7.548-8.945 1.076-4.535 4.051-6.876 8.927-7.024zm-118.606.376c-.48.141-.936.32-1.37.536l.05.6c.404.266.794.568 1.171.906.654.144 1.19-.014 1.61-.476-.06-.866-.547-1.388-1.461-1.566zm-23.362.061a1.182 1.182 0 0 1 .3.023c.793.015.844 1.074.531 1.581-.454.665-1.847.754-2.107-.122-.166-.695.547-1.436 1.276-1.482zm91.615 1.76a12.649 12.649 0 0 0-1.584.08 11.847 11.847 0 0 0-4.415 1.418c-2.483 2.118-3.29 4.753-2.422 7.903 1.376 3.15 3.835 4.78 7.378 4.89 4.416.267 7.057-1.677 7.925-5.832.307-3.455-1.128-6.001-4.305-7.64a15.843 15.843 0 0 0-2.577-.82zm-95.108.122c.684.148 1.425 1.164.807 1.703-.797.552-2.26-.319-1.807-1.259.196-.331.64-.407 1-.444zm147.625.723c-.346.003-.767.124-1.261.365l.252 1.19c.093.333.319.545.68.635.424.074.84.049 1.249-.077a1.04 1.04 0 0 0 .282-.394c-.04-1.151-.441-1.724-1.202-1.72zm-52.203 1.092c2.628.654 4.17 2.266 4.627 4.834.106 4.045-1.936 5.952-6.129 5.723-3.24-.217-5.099-1.86-5.576-4.927-.134-2.124.73-3.733 2.591-4.826a11.274 11.274 0 0 1 3.326-.772c.383-.029.77-.04 1.16-.032zm-29.115 1.393c-2.08.016-4.052.698-5.917 2.044-2.846 2.857-3.957 6.263-3.333 10.217a13.76 13.76 0 0 0 3.126 4.7 5.57 5.57 0 0 0 3.171.407l1.477-1.144 2.569-3.17c.396-.14.788-.139 1.177.002a13.6 13.6 0 0 0 .884 2.205c.179.172.34.284.485.333.346.119.593-.118.74-.71.1-.142.251-.202.456-.179a12.456 12.456 0 0 0-1.023-2.948 23.495 23.495 0 0 0 5.231-1.3c.83-.322 1.387-.883 1.668-1.684a11.715 11.715 0 0 0-.434-3.436c-1.559-2.276-3.698-3.826-6.417-4.648a13.46 13.46 0 0 0-.221-.076c-1.248-.418-2.46-.622-3.639-.613zm-56.832 1.023a1.13 1.13 0 0 0-.844.368c-.1 1.664.725 2.467 2.47 2.407.112-1.249-.38-2.172-1.48-2.77a2.428 2.428 0 0 0-.146-.005zm85.285.144a5.228 5.228 0 0 0-3.343 1.3c-1.005 2.223-.327 3.812 2.033 4.768 2.162.267 3.639-.551 4.431-2.456.231-1.923-.624-3.125-2.566-3.605a6.612 6.612 0 0 0-.555-.007zm45.672.232c-.22.004-.419.069-.595.195-.486.955-.29 1.77.59 2.448.367.052.733.055 1.1.008a2.756 2.756 0 0 0 .1-1.662 9.9 9.9 0 0 1-1.1-.986 1.029 1.029 0 0 0-.095-.002zm-72.528.408a16.585 16.585 0 0 1 6.134 3.085c.87 1.012 1.17 2.147.902 3.407a3.886 3.886 0 0 1-1.885.945 72.291 72.291 0 0 1-3.11.482l-.145.019c-2.583.655-4.48 2.102-5.691 4.34-.314.401-.678.75-1.093 1.046-.676.36-1.357.353-2.042-.025-1.283-1.15-1.972-2.564-2.068-4.239-.188-5.967 2.812-8.987 8.998-9.06zm76.432.113c-1.202.214-1.696.897-1.483 2.048 1.09.984 1.75.742 1.982-.724a1.822 1.822 0 0 0-.5-1.324zm-49.513.94c1.428.628 1.599 1.445.512 2.452-1.07.51-1.926.286-2.565-.67.176-1.118.86-1.712 2.053-1.782zm-26.57 1.334c-1.47-.023-1.992.636-1.566 1.979 1.66.654 2.325.136 1.993-1.553a1.646 1.646 0 0 1-.427-.426zm80.261.299a1.806 1.806 0 0 0-1.48.723c.003.844.46 1.317 1.37 1.421.636-.187.942-.607.919-1.26a1.212 1.212 0 0 0-.541-.87 2.358 2.358 0 0 0-.268-.014zm-190.313.008c-3.053.053-5.794 1.112-8.223 3.176v2.622a12.563 12.563 0 0 1 3.81-3.047c5.554-1.928 10.329-.792 14.32 3.409.67.965.859 2.008.566 3.127-.041.29-.21.45-.51.483a84.105 84.105 0 0 0-3.467-2.12 3.72 3.72 0 0 0-2.648.238c-.36.234-.596.55-.709.947.061.67.243 1.311.548 1.923a41.756 41.756 0 0 0 2.91 4.94c.43.845.84 1.698 1.226 2.559 0 .167-.04.32-.12.459a34.764 34.764 0 0 1-6.76 2.75c-.8-2.599-1.534-5.213-2.203-7.844a16.372 16.372 0 0 1-.758-1.61 2.423 2.423 0 0 0-1.256-.976 8.949 8.949 0 0 0-2.816.098c-.42.509-.582 1.096-.486 1.762a26.163 26.163 0 0 0-.317 2.88 1.023 1.023 0 0 1-.347.548c-.355.123-.683.164-.983.12v2.013c1.671.365 2.699-.414 3.084-2.338a72.87 72.87 0 0 1 .569-3.648c.778.331 1.322.9 1.628 1.706l1.879 7.714c.024.068.05.133.078.197h5.987a23.519 23.519 0 0 0 4.216-2.11c.743-.527.976-1.219.695-2.075a299.245 299.245 0 0 0-4.478-7.855c-.105-.382-.026-.688.239-.917a87.896 87.896 0 0 0 3.635 2.26c.676.19 1.356.197 2.042.025l1.225-1.355c.19-1.285-.014-2.527-.615-3.726-1.57-2.38-3.677-4.183-6.321-5.408-1.986-.649-3.865-.958-5.64-.927zm184.146 1.86c-.99.027-1.316.565-.975 1.613 1.138.51 1.953.233 2.444-.828a1.545 1.545 0 0 0-1.003-.766 3.676 3.676 0 0 0-.466-.02zm-153.62.806a1.787 1.787 0 0 0-.873.246c-.181.303-.16.578.066.824.217 1.154.872 1.49 1.965 1.008.348-.813.138-1.477-.632-1.994a1.671 1.671 0 0 0-.527-.084zm-.292.264a2.88 2.88 0 0 0-.257.112c.085-.042.17-.08.257-.112zm75.064.067c-.744.116-1.076.538-.997 1.266.194 1.127.85 1.488 1.97 1.083a.827.827 0 0 0 .259-.693 6.531 6.531 0 0 0-1.232-1.656zm126.463.179c-1.39 1.64-4.065 3.692-5.144 5.569-.91 1.506-.819 3.426.02 4.94.942 1.735 3.416 3.731 5.124 4.772v-2.012c-1.392-.745-2.219-1.959-3.068-3.256-.614-.942-.953-2.175-.424-3.224 1.114-2.123 1.675-1.668 3.492-4.167zm-75.82 3.178c-3.421.475-6.514 1.695-9.276 3.657a17.187 17.187 0 0 0-3.744 7.08 9.12 9.12 0 0 0 .321 4.949l.002.048h1.861c-.891-3.81-.063-7.253 2.485-10.328a15.493 15.493 0 0 1 5.421-2.817 1.579 1.579 0 0 1 .949.093 65.33 65.33 0 0 0-7.302 11.59c-.367.474-.714.962-1.04 1.462h2.439a111.84 111.84 0 0 0 2.97-5.646 47.604 47.604 0 0 1 5.012-6.932 9.886 9.886 0 0 1 .512 3.43c-.638 4.059-2.578 7.108-5.818 9.148h3.497a16.148 16.148 0 0 0 2.229-2.517c2.07-3.742 2.536-7.684 1.398-11.83a2.427 2.427 0 0 0-.613-.79 7.45 7.45 0 0 1-1.303-.597zm-114.65 2.692a13.24 13.24 0 0 0-1.251.028c-2.854.204-5.245 1.371-7.174 3.501-1.984 3.098-2.063 6.269-.239 9.513h2.593c-.836-.749-1.444-1.722-1.822-2.92-.494-1.786-.263-3.456.694-5.012 1.54-1.928 3.527-3.01 5.96-3.245.349-.033.705-.05 1.071-.048 3.954 1.1 5.596 3.608 4.923 7.526-.521 1.598-1.306 2.832-2.354 3.699h2.64c1.476-1.84 2.017-4.266 1.622-7.28-1.03-3.21-3.251-5.131-6.663-5.762zm84.408 1.728c-4.185.53-7.02 2.662-8.507 6.395-.086.447-.025.87.181 1.269a1.9 1.9 0 0 0 .877.172c2.42-.476 4.361.257 5.827 2.2a.947.947 0 0 1-.156.989c-.155.095-.309.19-.462.288h4.075a8.567 8.567 0 0 0-.069-.13c-1.428-2.354-3.471-4.01-6.129-4.967l-1.573-.054c-.146-.78.114-1.448.78-2.005 1.616-1.404 3.493-2.162 5.63-2.277.306-.016.617-.019.933-.01 2.85.675 4.89 2.306 6.122 4.893.557 1.683.668 3.2.333 4.55h1.883c.278-1.297.28-2.709.007-4.236-1.595-4.472-4.845-6.832-9.752-7.078zm-83.914 2.457c-.419 0-.833.02-1.241.06a11.926 11.926 0 0 0-3.545.912c-1.944 1.497-2.296 3.3-1.054 5.41.65.926 1.556 1.448 2.716 1.563 4.837.088 6.621-2.105 5.353-6.577a4.5 4.5 0 0 0-2.229-1.368zm21.504 1.27c-.353-.013-.701-.01-1.045.012-2.294.142-4.402 1.055-6.324 2.74-1.187 1.554-1.87 3.166-2.05 4.835h2.046c.366-3.254 2.383-5.119 6.049-5.596.677-.088 1.41-.129 2.2-.122 2.505.295 4.504 1.427 6.002 3.394.506.927.464 1.701-.127 2.324h2.037c.173-.647.164-1.41-.024-2.29-1.088-2.35-2.914-3.918-5.48-4.706-1.132-.353-2.227-.55-3.284-.59zm-22.476.295c.75.086 1.328.452 1.736 1.098.383 1.449-.077 2.556-1.379 3.321-1.516.776-2.816.53-3.905-.738-.191-2.416.992-3.643 3.548-3.681zm46.624.216c-4.383-.1-6.86 1.935-7.432 6.104l.063.972h1.803c-.172-3.57 1.784-5.332 5.868-5.288 2.077.354 4.107.88 6.091 1.583 3.34 1.411 6.75 2.646 10.228 3.705h4.762a17.57 17.57 0 0 0-2.544-1.16 211.115 211.115 0 0 1-14.213-4.996 17.036 17.036 0 0 0-4.626-.92zm41.953.655a3.203 3.203 0 0 0-1.591.7c-.087 1.255.5 1.72 1.76 1.397.152-.45.271-.91.36-1.377a1.828 1.828 0 0 0-.53-.72zm78.802.724a4.025 4.025 0 0 0-1.087.142c-.7 1.242-.325 1.997 1.125 2.265.554-.206.836-.6.846-1.181a2.122 2.122 0 0 0-.884-1.226zm-42.093 1.08c-1.01.055-1.595.568-1.76 1.54.082.216.202.41.362.58 1.539.363 2.147-.201 1.824-1.694a1.639 1.639 0 0 1-.426-.425zm-103.823.55c-.325-.005-.636.104-.932.33-.413 1.084.021 1.609 1.303 1.575.345 0 .54-.162.59-.488.06-.414.001-.812-.176-1.194a1.736 1.736 0 0 0-.785-.222zm135.197 1.758a20.78 20.78 0 0 0-1.417 2.309h2.723a26.955 26.955 0 0 0-1.306-2.309zM.016 159.296c-.01.228-.014.47-.015.703H1.77a7.05 7.05 0 0 0-1.754-.703z"/>
	</symbol>

	<view id="logo-color-view"  viewBox="0 0 514.76 116.09"/>
	<view id="logo-view" viewBox="0 0 514.76 116.09"/>
	<view id="phone-view" viewBox="0 0 640 1280"/>
	<view id="chart-1-view" viewBox="0 0 1200 1200"/>
	<view id="chart-2-view" viewBox="0 0 1200 1200"/>
	<view id="mood-wrrr-view" viewBox="0 0 24 24"/>
	<view id="mood-strong-view" viewBox="0 0 24 24"/>
	<view id="mood-chart-view" viewBox="0 0 24 24"/>
	<view id="background-content-view" viewBox="1200 1200 240 160"/>

	<use xlink:href="#logo-color" x="0" y="0" width="514.76" height="116.09"/>
	<use xlink:href="#logo" x="0" y="0" width="514.76" height="116.09"/>
	<use xlink:href="#phone" x="0" y="0" width="640" height="1280"/>
	<use xlink:href="#chart-1" x="0" y="0" width="1200" height="1200"/>
	<use xlink:href="#chart-2" x="0" y="0" width="1200" height="1200"/>
	<use xlink:href="#mood-wrrr" x="0" y="0" width="24" height="24"/>
	<use xlink:href="#mood-strong" x="0" y="0" width="24" height="24"/>
	<use xlink:href="#mood-chart" x="0" y="0" width="24" height="24"/>
	<use xlink:href="#background-content" x="1200" y="1200" width="240" height="160"/>
</svg>
